<mxfile host="app.diagrams.net" modified="2024-06-03T11:50:36.661Z" agent="Mozilla/5.0 (Windows NT 10.0; Win64; x64) AppleWebKit/537.36 (KHTML, like Gecko) Chrome/123.0.0.0 Safari/537.36 OPR/109.0.0.0" etag="JZzeeSATYVTkYdTV54MC" version="24.4.13" type="device">
  <diagram name="Página-1" id="EmNCy7rWjOee_DWDSbSI">
    <mxGraphModel dx="839" dy="1623" grid="1" gridSize="10" guides="1" tooltips="1" connect="1" arrows="1" fold="1" page="1" pageScale="1" pageWidth="827" pageHeight="1169" math="0" shadow="0">
      <root>
        <mxCell id="0" />
        <mxCell id="1" parent="0" />
        <mxCell id="4uxi48dZsm-Q4CyYIqbk-2" value="" style="rounded=1;whiteSpace=wrap;html=1;fillColor=#000000;strokeColor=#00FFFF;movable=0;resizable=0;rotatable=0;deletable=0;editable=0;locked=1;connectable=0;" vertex="1" parent="1">
          <mxGeometry x="310" y="-710" width="280" height="490" as="geometry" />
        </mxCell>
        <mxCell id="4uxi48dZsm-Q4CyYIqbk-4" value="IMAGEM DO PRODUTO" style="rounded=0;whiteSpace=wrap;html=1;" vertex="1" parent="1">
          <mxGeometry x="350" y="-600" width="200" height="190" as="geometry" />
        </mxCell>
        <mxCell id="4uxi48dZsm-Q4CyYIqbk-5" value="&lt;b style=&quot;font-size: 36px;&quot;&gt;&lt;font color=&quot;#00cccc&quot; style=&quot;font-size: 36px;&quot;&gt;Revisão&lt;/font&gt;&lt;/b&gt;" style="text;html=1;align=center;verticalAlign=middle;whiteSpace=wrap;rounded=0;fontSize=36;" vertex="1" parent="1">
          <mxGeometry x="397" y="-690" width="106" height="30" as="geometry" />
        </mxCell>
        <mxCell id="4uxi48dZsm-Q4CyYIqbk-9" value="&lt;span style=&quot;color: rgb(0, 255, 255);&quot;&gt;Desmanchar e refazer&lt;/span&gt;" style="rounded=1;whiteSpace=wrap;html=1;fillColor=#000066;" vertex="1" parent="1">
          <mxGeometry x="320" y="-290" width="100" height="40" as="geometry" />
        </mxCell>
        <mxCell id="4uxi48dZsm-Q4CyYIqbk-11" value="&lt;span style=&quot;color: rgb(0, 255, 255);&quot;&gt;Está correto&lt;/span&gt;" style="rounded=1;whiteSpace=wrap;html=1;fillColor=#000066;" vertex="1" parent="1">
          <mxGeometry x="480" y="-290" width="100" height="40" as="geometry" />
        </mxCell>
        <mxCell id="4uxi48dZsm-Q4CyYIqbk-13" value="" style="endArrow=classic;html=1;rounded=0;" edge="1" parent="1">
          <mxGeometry width="50" height="50" relative="1" as="geometry">
            <mxPoint x="580" y="-440" as="sourcePoint" />
            <mxPoint x="850" y="-440" as="targetPoint" />
          </mxGeometry>
        </mxCell>
        <mxCell id="4uxi48dZsm-Q4CyYIqbk-14" value="&lt;font style=&quot;font-size: 48px;&quot;&gt;Exemplo&lt;/font&gt;" style="text;html=1;align=center;verticalAlign=middle;whiteSpace=wrap;rounded=0;" vertex="1" parent="1">
          <mxGeometry x="700" y="-520" width="60" height="30" as="geometry" />
        </mxCell>
        <mxCell id="4uxi48dZsm-Q4CyYIqbk-20" value="" style="rounded=1;whiteSpace=wrap;html=1;fillColor=#000000;strokeColor=#00FFFF;movable=1;resizable=1;rotatable=1;deletable=1;editable=1;locked=0;connectable=1;" vertex="1" parent="1">
          <mxGeometry x="890" y="-660" width="280" height="490" as="geometry" />
        </mxCell>
        <mxCell id="4uxi48dZsm-Q4CyYIqbk-21" value="IMAGEM DO PRODUTO" style="rounded=0;whiteSpace=wrap;html=1;" vertex="1" parent="1">
          <mxGeometry x="930" y="-550" width="200" height="190" as="geometry" />
        </mxCell>
        <mxCell id="4uxi48dZsm-Q4CyYIqbk-22" value="&lt;b style=&quot;font-size: 36px;&quot;&gt;&lt;font color=&quot;#00cccc&quot; style=&quot;font-size: 36px;&quot;&gt;Revisão&lt;/font&gt;&lt;/b&gt;" style="text;html=1;align=center;verticalAlign=middle;whiteSpace=wrap;rounded=0;fontSize=36;" vertex="1" parent="1">
          <mxGeometry x="977" y="-640" width="106" height="30" as="geometry" />
        </mxCell>
        <mxCell id="4uxi48dZsm-Q4CyYIqbk-23" value="&lt;span style=&quot;color: rgb(0, 255, 255);&quot;&gt;Desmanchar e refazer&lt;/span&gt;" style="rounded=1;whiteSpace=wrap;html=1;fillColor=#000066;" vertex="1" parent="1">
          <mxGeometry x="900" y="-240" width="100" height="40" as="geometry" />
        </mxCell>
        <mxCell id="4uxi48dZsm-Q4CyYIqbk-24" value="&lt;span style=&quot;color: rgb(0, 255, 255);&quot;&gt;Está correto&lt;/span&gt;" style="rounded=1;whiteSpace=wrap;html=1;fillColor=#000066;" vertex="1" parent="1">
          <mxGeometry x="1060" y="-240" width="100" height="40" as="geometry" />
        </mxCell>
        <mxCell id="4uxi48dZsm-Q4CyYIqbk-40" value="" style="shape=image;verticalLabelPosition=bottom;labelBackgroundColor=default;verticalAlign=top;aspect=fixed;imageAspect=0;image=data:image/webp,UklGRoRzAABXRUJQVlA4IHhzAADwmQGdASqiAfQBPm0ylEckIyIhJ/OcKIANiWdu/HyZyOQEq6KWQY3jmBehZyfwvIU/v3R49VH8/6Et9S8Rvz39d/uHgP+m+97Gb+gshH7F/Bs+3Yv+7/5XoF4vddeAP7C+eVNE+edQX80PXjv9KBH6f/ZD3kv/Py6/xf/m9hX9sDWpO4R0s//iQrp4H/4kK6eB/+JCo+bg2Qc0qlw8BLE516YdHCf/iQrp4H/4kK6eB/7KervfRPD3/S2xODo5jh0zB3HIE0QsbHdC4NjfiHH0PIS6goLqkpZq+oIJzGxIV08D/8SFSI6Sdjb7j6bIS7hxKbYE5puVETrJ6/nDT1e3jBvOHAK+lXmwrvFfFuF5NI8v+7ZCW6UqqraQ5uSuXJDC+6IX6vgNTqcl2jvJDqvWNR6rcBVGTCp00cLx/nfxIV08DqcsagZFsT2cmwknyQ3jMOHcVDUakluawOgRLu1vs41jr5oX3cq7eEyGzRyFMJws+oLLfJCD2FDrf2mF6Ro8jPszxP580bIMaayyNChLNKLNlmJeTGIMaMTmNNS1GrG54H/4fSxS7WKophOXg2gKeze72HkC6sxtfPiw/0W206eC7ZazX49U/gEQ+IuFgW12iMswa4u0W5SiF9X01k4gs6bfaHjTNY3N2d/50GJuODd3pqxRjB3QPGiv8/I5FvcmNaLCPYNdwvx4BFFpmf/w+p23h2Uvk3PQR+0130zIOJFuUy9geoiIHko0x3nZ0wc6gvok05vGRNlSD0Qg9Lx8maB9cMIs4dNx5iWlMJBqHLtN1HyEg32TD1+8wK3JLvKuct21oBcI360fYQXFfQrjyHmJwHI1j07iSuUvXCMM3Kywm1Itf6dXaYqeJu991W2sTngqgqfVWuX8f2AXB9y6AVd9BMJBVufB2SIu+iaqG8s14hdHFeuMKwI2CCa190e9/Q2StN1UtUbj7i4GZAWQ0P2ty+hUf3KVYYJnZnlojb7SOdo1KSdphhgBwss//U2RtRVwJOOWUkScvhTzlPTfjzHb5ze0h4sVs7TcYST4EF3XBiiw07HtriAAmF5XfP+FHlVm4NMbcM3gwup8ss3Zk7ftxBbfG1SMzsJQPwQSwYzVL3lGAtHvxTqSFizqNmOSaq/IlbXoAVYuN0PP8efSMbEfcX/DNMc8jGbcEBBAW4XbKHJh73qBJmtiDuoeRbduzjsSc41RU1cZaFZXaQAz1/jiwTgWsBtGZOwfcd+5Uv7Q218+0KwuDrK0PG8DRBhKXmdcTxVFi3z6ofhfG6AMnbzHauf/w+lnuPNI3nkmhMj6SnEj8J1t38vnWJ4bc3lcDlu4jJ/47+6CIrmdEsNuYK8YSDhVDzOiip+G2VR1+0VClex+Q25quXOvpltxzye95AqhgJLYV79M9FXX0yadn2jEKU65fM7OXMEGfHsac/gZWLhnYTmJxgQmQBTyShmxLgrOOwMZQz3wRkUtEcRsqNTBeUdyG0QWNzh5Jlj9W/O65UW+XSTvsGeH0cbx//aUWVPO5xLhY/cqqIxwpeTdmtxRKfDdyemLjUhPmj/sPLxVgnlE7Qdhm4FHAuQ85gN1QNr3fxn4r1vNTM59ifL2H4a17sgufPP/4dbIF9p3jxXK6e0hyHAmTNmqonmeV7MiByk2XL/2OVwmav4A95DSovuOlq2fWviNBy1WrRHEsO+Y8VIB0563Ee6oRI/tQB3GOHZJ5blplfeKKVqjXQnjZvaH8dz2ytRVOMAvTs/8FJXl6UFdc//h0C1ukT+M1eP0BdfmX4fdlektU9gDTskDkTvWxHN3FpBIuHykCu12YhUbbkDokqj/EiyludX6xb8z4dTN5jB4YvAFr+rKteYyRvh2jJp5VYRf5vtUtdqV7e5fNAMLfvA8nNN+i/kXSpg24TI/6cYW6xP7jTb26KPZXofenzv5gdqFcUX1HmOcbINFb0/NOI7aBNTEAo/PS+2a1RnjBXL8f+jS4SeWhiXZUmw9qBkkoA7k+f8sd7PjGRYpP6VwOdZw+R8XWXFNKBsDVDbMpPdLvQYhYuHghMDPR3AinQSPaFHEO/h9LPdyihiM1KkCdjPN20jrCWH8eDeuHTQXAQwKQgZtL48si95tuuRsmqnp8lL8OBKG/E5V1afly4+BkwTuaeekOIGCLkZRPk56DbMIb48hFyqj3pUCpMgWfpj43uU2GifSALChAMpH6rqUoss78RATjhmPnNdBckyFkThh1aH+u3XElyCMv606v3dfIsSJPzfZo2yFRikN7jkht4zTVl3QhebDKByvcJgA2PvncE0aBGy1+JIDmM2tq02g3+ZRNJTC78HeiE0x4xouoO1rDVAoPuZA2tcklea4u68tkLFJ/dzenTZez5iNdnGYf8La2pZajuuisMMcxvTrX5NQLaVql3vOYErp69ambN/j6zkhnz9JUE5xi0f9RwgEtDZzeoBAR9XcraGDnV9eeJ6RwMPbDAmKVdAVmYSwLs0roDwGhz0OvxdW41yIT17iV+b2XiaqRPMYHx50K6qn8NIfbkY2P0FXQpaWyJeu4WgmaDQrvZGLxi/OjX/uybAbSebofnvvBQI29TqxRruw4idMtaaWHLd/7rW0UK23npQfIgCmRWosEjBZF+wIYXrZqk4fqECrp6XjCYxt489vOq1nWvXnwInNd+6+EX2Tgl2xdanRQHawB2ucq9GFDEBQ+tJKEvidlyDU319fht3DVTEdoYkOGKvwrCIAZELUj37Zc8WVV5/WkY7K0vKKjABmWFibWJnF31ufVArMS/mNvte9uu7Tnvh7xVlBUak4cW1wwTj+QUmJqyQ5RhfcOwzh67WEmd2HyZYgx+G255Z5wF/w+DDq5wGa5Mb8+1uocH/R799r7KTIr9zYB2Vg4i19bsFgK7acfAUZvMxBZgxaPlmgGWlmiHMRuoyvuWtn9Vl+VrSfDjkj9AO2Zn8AJXaBUupRfP6+WC8gZpaXU/SfqyeCRam8DE9HmRT7R+UZHgwdnPboNQvLMVpTgTQRTLAZqXX5LQqhJxGx8tiALHa3E7sGZWrI6x/ozuh73r3clYE0Zw3/7ve/NZ0LidfgKPpO+vPHHEPAssJryoHWZxa3CkpkL3t+p7vnmRnwezCFV1lZccSLSqNebkVW0xCLkoI9rK7CjrXy9BF4KvQ3V5VH2MN+ZiAKqDirCU67fommJAumPQNevLCedgTEJvLVqfQnJjA/37dCrg2HLuOkMSwtHJ8d08X+Vr25ZC6MHUwMUgOzNi23B2f1Le/ZpjOYnKp5h9gp5oy8v2dLS4Ak2wP4d/7dH8ojqTfnQAx1fjcegyEPLDkMYeahi6gv/tdgAIBNj/w+wkuFGNs+Brlav0xYV+jVBrcsWiDOMCbxPiLo6+2jAnbjjKe276JfS4OwLofHgbU8q62bUmcuoCs3vqUvaE8Rzwm/pj98i7r+RysQWrXqWuQkDZxpYNhfQsaRq9VEjPQRdY4jtIq2NdGW3vZYh4W0Fsdm67txPj6K/wlj/UFQwWX+MIsuOU+5Gb1IivUMmZRsag51AhQLfN5eB0cYy8wY1aOorWPk6mQlj8wdenLVulMKxWheHbxdD3WYgj8snL/orRTer/fhQmdPjkXL/uY4vHvEN91hC9A7pRM1basnzMafTcAuGqG4iRZLW5L06rLI6Hpmiipy2V5irXMLnkFieQ8A0N9XvM4bhHqO3tYZN/Dl9wse05uLsv9dn+j0ZVoo41XGbYZ77XCoDfYsonA+lo8DYwT6NKBEzPB/Zz6VbfOAnr7sYzvkkYenZUxYeSunUcXG5+cvOl5dMBxPr5LcD9bbDcE3flyuIkjoOMfON8qaUK0k9bEW228U/Y7BO+MZAXza4d2aU9uKgA7vpBRuL116sSvewDnV9ACib7zIlt3Gen7skvRFuUPLmu7AfYxNa/t9NuYWZ6mbV68SuBda2WF4F2M/1jaf1M2ycTGmx66lhIQjxXhhxQZ6Uu6V/vHIBXKfy9UG+w647mzsiBhcVi/5OJErjN2zJ7jKJ+g9gUS3mwshRQnPSMbYRMhWN2qMdyDrJ/b/Jm2rpOTie9wvKGAoLNhNq63ogKyV8Oid/MyQMBk8cwAKtCyZUpc5QItCl7i3uO4svlM+m+D+GHxz19H9Kj/hxSWrD3TkzRLXPaY46I6acVgpM1oXu7QVpifSgVFnUvsAwI6R7IRFfZ6sUO4qbcLuj5BbtGnF3/O9MyG3uD1Xjo5qe3+jpktl6p9pGOtruXvt0Wi5e6W6NbeZx0g4sHL5C1z4p14tpxNbodfa4pesYkBKoJGPBq+tQTtQJYzLYSfpJQ8zA4j2rYheg4bGVhSBuSokY2+2V05gCE8yG4ownSFCdD/S3rROY2JCungf/iQrp4H/4kK6bQAA/v/foAAACO7mA37nr56yhqDrYK9tUeaBikL+PY4sFI+KLYAL5aPru3AWUoOcZt5BONI9trJDDjofzqxkZBduVoYR3BGStU17qqFwvO2bzOlU3IE/W+B564nmZC9q3XJ/7EYJFgn8g+djH4fnjD95MkEEptCAEYrLDK1hnClPtw+ZVNp2XQxoUtshFcNiO6gvEefqrfecxtd5auAACn3aFTfF5we+BWFYjujuzh28pIasMgBXrlckc3aRFWxwnbi2aaILkZdVrSNG4HtZyQ+TPW+2rqWkIv1DAyFwt1JKRtMm6D/vf9U7cfj3vo/HmJHd9u6wrWjtIDi0pxrmXUF4ORkxzI/QyO+tOOXj4crsD8qq501QtsnfAjFMb17yqokAtZAG2dzJm5gsidYf1TaupXZj7/vIXnnUe6xRLX7b0yLxw0NQ5kuyOwXYD/rBzh8effhR8IOIL5919YDSfpitynrf5xDZK1CVHHkdGNWvmhhPi3Y90vDuxoi9UODaAe3tTIVt9G6UaxKUgbml+ObY6kOpl5WoFUEq/1DH+mdr6yHS+p15hPS6a/92DwNfhZMVcZWFg0jst89u5nkDLb6LcmLm+r/2axyutAblqijLZYAy2Td6H9rfFrmDJoEpVi+nngsGuEIJLeWudNSn2gVsOuv3ZQDWx/Lo4sljx1Hm+j+PA8Ab6y+JUNjJhspyUvRleqVOP9AAuhvlE41R1GrIppxClxPtG+5HOQcHrQVbuihdwLecXbwXf0P8AyOxyU1voRM1jiRV6zG7ojNwRDIwfCfAoFNPRWn6tbHpQkXcHjJzwK48df4GcQanGoR7Jxckl/ObkGHWvLLgEb/XqMkWhVnoxDseKc69pBQec6pabBGS2RzaqH/naSjY687987auLttJgPYt75XN86x3FHYzxZ5G9E37vrlaiLJ8JEt5H+edKgFxtp3IXfAvCHunpTb8wrY/qUzOm8YImqiur6Ref8m+lGfQw9oz0H457pCIZpz+vgWJVAuX7+nh/V+/4TNXit30J8nCaabRaeOKc0mj0mjJbWwEd7dxMaTJBlhwIRc0Gmp69CICwJgZtqcZ516VmIrmdABVX6fFJV+JR3t3lTvqApnpDgsKnAIIGeqo0pk3gD6ow9plNTE3Tr2MKNwJviMLcPUAqZhlzhBlwdDW7nVlfWUbX39crOYenUsuw4+uogA1wCP2oeRJ4uvhW35Il2om+Kz+u5e1JxoNRG9ck5L/olR9vSq79eNdbsAo4m9f53+wC8MUX5+2tWnwqGT7pbFH7qOgRBmjjoNiW3zdcexacZlEjljkX66RrJXmyJzw3PD4kUrBlpzwBalcZVAWWBaXzWTsPsfK4n+p6FFK58Xud2nTEqGsOOG+aTuQgN4gj5x1KGYPjFxfXBRHyru7KUSolkVvcHGUWoOj4ZX42QtdnuiPsY6HMB2aR7SxHU/E6rd5ptZHxIispWhgS0alXVTSazLVZNYJvrrHzbzTWQjruWxI+Rabd5of5Zc87T/Zr3Zg8Qf988lof1CUhQfGW65/AX+isQ7ZbJZtNzxufk6Y9JxWOq/wfCuRL0fzr0wNWEpUcGtSjmQAbfPvB/cKs4lXVyxZ7aBxNEXVEHawPl1D4vgJqNaOujgk/Az4rsaW6AMAPkzu74kzuE2iNPEaSIl0M5M05jHkZmCbz1YXiBVfL45EuGIEQMFeSNq8MjUbWmL2e6SVG/jfuMr0n2PSLJA3JS5dWB8EAiJoMGTeHKAnJOwmCMMLRwmh28kJWkuTHrZ8i94athm6lst0SRCtfRGlDHuDzELnBIZNoOMFdF2RcGy8EaAZrNJTaBYZ+UIyBOJYQbuxWDn7C6iDEiOF7hNYxBzWeSSJoTJVLdbxUSiHtCiqRiCyxjYxbEpoXLfUWBeu55s2ulNmSNyn/pLvW1K9ukTmTpZNmIzZgOKERrJNDEfVJdTdEZzGEbER5nuYq0BfHbCM9U98CeKWHmgWYnhH3Nj11mR71ASbJKncfP9/XYzh1liCRjNYr93EpsTumFlfw/PDtDzdVl3atZWOOoWHaftBE4sRD0NMl8c0Ln4NY3gsfz2jspkMrbD9BZtZPAKJkdAY4cZobLYhnJuGpSYe1vx6QlRuxVXxG5TemMbiTVs1Gchc4ZTerHtc0gDTwrmr7nk45vabctpAI9CxrUjY4IqaKUxbjDGNosbBaFiawy2Tf+tktIpYGhkHwGeByc+upg/RxWw1QkGqFpAbHkEp/t0okwTHMN4xTVNWWG0aWS6wniM36iZyOkNWoRXX/pQ4KUpO2P3KlrVX6PVK9c1rR8KcbVl7TrDy9RqxbXBqNsURS1YwRZm1DoDNbE/s/EiK1kOF3iI9tyBZUkm6TYXUJv45es3OcjoSOg0pI3BcxreIHn1id8wNkqhn8bRpz/hXZ7eQJIRaU2u4hFFKsG1uAzSCfhtTdkfVZBVAxbpqnSvrm8JxDBpTSeLhTZ1MbrkrAGa3kYE8m+keumHvBzQP2KMkOfCZAsmpyl73QsHJmCjTHLAg6G4h1UMUNzXfy01ZK53Cie8PQBUNLO/10+FN/QI81yQmNSQD7LOpK4xls3pbaXHVo8wuzvX4GCwBPFjhvfeRP5o84c/lO4WvJi+otbrTSMcM10lO654SvC7K9pfhx9mUUTvXlgzvw3xL28GooafmrgmcAKz3JQtp7tocxneu2uGhKrrpr+U4NyXXwliePYatISX74NtT1/7BOm+IdyslKXUy2ebW5k1+GaL2kuxTr8ZNlpMmouZPUPFfj78WfSY5b6FQ7bZYLTbxl7hD21RvMkuxIMAfrRCZSCCV8fXcPTooVu+kjzgiFxOXxCc35UqNw9M97iiPYEOey+CeH9GEYfU3w4Yv2/yQ3taPdIwJw5zcrfiRxlbl4fILkN+L1edzlms1dl1/MmQCRokeQ+ukhiL4h4kxvDvmVYEaPRVz6N+Usn01k9GkG9VXy+qLipNHi11nh65XylxBF7Om6HXFlvs4u7ZPHWjX1BoMCtrt71EEZx8B+CI7nGlq2bICYSOBk+B5zXbw6d5PCtMRfX5HlDclldXGcObgJDl6Xw2Bqoj57xQeU9UKQrSsvjh5lSzIa6oK2+TKzOhnLtQY6QNIOsE7dypRv6Dd2h0dqCNaSrPa2f0d9xlCz3jmbOvEyVnoIJI3FjmTeDI31JQfMVmU1JIdJxrNTyqPrLpASiKP69WWEWudrn8+ME9D6fCGfq9jhbp2Ujo6xyJh+plGzAFFRJ11gqJX/1QS0hMQ1rReGDAr2d9Iq1p8hzNESU3pht01AJLe3A0I6NsG/kPILjoeflJDiJg1L8nKT4XNzoiRKaImLarh0mHtc34tzUBlI5V2wsiqqhOnITOfq1QwOfooVw0e6fRzEJYLyi0dyhv9mJV3FIZTmvXtbi5Yqs/oKlaOcJsaTZX592uLmTu4b91DpUhCxUHGlB4Lz1SkmZ27PTdGQJ8H5nMhcN2msXR2bWiCh9iDL8lcsKjxPcZuLKZmydtH2Bd2lkpgufm5QovGJT37BQsZ/EBf0XE/OosCPxGaGpfI5lHYCDnSmH6H6cmYUaRflG5UFxwx4hxZMlIUO9oocjShPkx+BUgYT/FgDZOUmlW+kU1vyxtFtzzAEW0lHhY5XeOouLfYXeHt35dT2E28LMOxk5kI2S6QqNMkrsxXpQx/gCXmA1bMya+l9WW3oo9L1BKvh3syAsTulWftG4A5EVFHoH0knnxc8Fs3Mx4UdBvFqvzahpiK9QEj7to7Ef2DDRJa/SrYI5l2L9JYyJgj9a+cdn+YCZikJYeFMuqDiXHmv4RHfAq8eJB+WMsCAAR0VX1Pq6icfhuFbqobmWNbJh/yVptlgddEavrfT/knoDLcyxqul5Pa+7nWq2Ya9sAcXGOsP/YF8hMYW6Ro3miE6PbRUgER3VPqJdvmLUzhptOPAPeSvneiNYLWT1ngbjyvwrJh7l7OwUWNDwqdo2e/e0Ax1ykwhuy3YZpDGMf0xUGgQ/WN/5mtx7TErjwcd/wj89/mSoyLm/20+3hgMuPPPXamsXc0W7lP1t0RcmLL8D6Cdl+//4OCJBTOZh9CF+QIZMsGJk8l6T4a763jiT1B2tUqKj9CagTXZJwdgpr/2+wExBX1ccYGm8hJSQgOCllngystuI1DQL+hKsjRxCv00NP8r1pL+etbOC8GzfdSsOW8DsEKSBuWYBDmvIP4DmWl/m4nsOXlMzRgXmGgujpXT8DDUWQfsHScrsIlIJidPyrimqrOlHdjpxYUaxrN2BS5tH3CQsIaeIRA5Nsh584c4hFzy9l8P1wITCoy58IVxUUk2YtORycBT9SOOBGH1DveiYOLgjOfXRd3eyQBLB1fpaUF5p9QaH3w3rZdp1O9yYwxhNn/yvQtpmCGgJnEydaFEoN5hTkb0Qt/hSLhnvf54l9BNSTgn6yGCcmOpD+DT+19Iajvv+unvtc26Yewh2xuaNZhipmsJ68O6hpugyIPhqgNWQ1vV7t5kUZyXfoBTZpEsBVzgj97qhB1t/CXHcMc1SN5Go3ONEiI5lGuAYFLeSz1tyNp0CU28VtZ65g0XzSqC6P3axtwxOMLTFgEv/GGyXdf3XKZkD1EYCrSlZItvdqRa5eTk3ACM4MA4U1yw08wUEK40T231qyTyjXocgaSX3NjReUWQjNClD1ergnNgzknTPiUjILBJIT4BeoJIN7J2wEFXO6Zo596Hzzw9xWpOTb5Ga1Yt4m0UkgrNXfS9niL+owZUf2PR3lXy14oq3hqZ3uSTIE8BORdoRzkOAjFiy5GcJCLrphmFkX1gh2TpClSYiBH40orb3G7YStTAB8LG5l34ei0bAARR63qHirWkLhd6WN2/RWrAg5PIom0bLiNA+ysbaE2hd7ZalqnhPGeUYHLId3dgib0y857KgTYSwwrpy2BOFHTG3uLviAa70bA1Qm2EiWTb+TgJkq3i2Ry5yutyEsQ4wlBcouayBtIRw9V5RLdF9eHfihWzaO+TnN2uSg0jvK+CRuiYpeJ0UcC9R74vCtryIK58jkqdZpkjxhnVykDCWvZeyahkVOodQtMB32ekqDg5j2cA6Ke9+IvoCzLiSclCkNdzzVqtm9exGBkGk4ajkyMe9hfqablCvg4uSm8MWo9suc3LzO/wSXeI/AO28SisjE3u2IidWJZ7S03r58Xnn0yQTYQrV+il829X3eozQQnvjEkYns2dG1RD/tEvLN+OwiO6+yjsix3DRd04e9+4TZpTRaOWjNEtVN/bB96TLlSOrBfVE0nR49hdZj6b/AaEnmoHChN0Zo7+iH2CIxyRe5mcqxRUfE7XWTTN+FWCTR688M0InDUhG6MJHbw3wsfFbeWkjyR4c0DaaZff5wabsL+p7917+VedSP8sD+Hs3UNgLqVm/9D93TKuqfQa4VAQ/0UZ7CcKE2NmcfoPNa3AbQWfVEk/zHzV8xn3ZKIPe7P5n7yp6q8Cz/vz9GajUJb6xJAIVxtlIxoUF9Q2iRG2Yf7kR2hN6EJOSJAgJYRpiAR1iH0az+x79CYJ4Mfa7xstADaNLVajWIQyOa8aNDlfiunwKqWRRmMNPDRRpRNh818kcAxKTkrDEo99+0lkhWZws++khRQEu2Twy8Lm0+0BJIpeqjXggig9AsFUOBzjI6ZTlw2EQSvXwCswnT54gs4hYKZLmQPEd7sVjcEDDyULFh9//vYlrsNPQLy/5Qw4i7k4dNlQCEdTbYC6DE4fI/c0xvaoK8wMP9ntF4w/DMFMZ2Yd6FdA9pUUrvOkcFzevuROWUG/IozdqqHRfu2suSd5stiZHO7y0pU18yVnNq33ZvwBkbEScLubTEd07F1D5OYKx+O4+t9d0tjwk1y12XAf/smMP0t5zAEjhEOX1IyHXJUNSQACrFMto5N7/YhVaH2ux2MjmsKaNAnLEfmRIM4F4rP06chkDai+H3o6Lk3OAuvGlpCuX5UI0nNlwNx0Zlfn4mEylmhKD23yKNrEyVEO2NRYCQopMumleHDNJoZEO9j4SBT/x5aj7GleCVPR3Fgt11ZdO02+FhSSCrqGrUtvz7YiuBUacnIdh01dVF3LLRw5v38RbNcfss2uFz5/GuPgOl7PQBzPDCbsjy0MoSuR+m7S8o7bbqdVI4LlpEsLEBL1D9O0LV1U+62NE+l11/IYG8SsFvzuP8YO4SQRK2I4tB6UvEDWiVIQq8I4EKrP8PNXCSrfd1Uw7yB+rRyrNefj4Gl3+7ZmUIw04ri9b7JcwyS49260W0uEDATKChliljs8KuRrI+bi4mclDWYIdYetlYyUQINYCSDDj7RcxVVgD5jrvxv/Ep4GRCtmm+Bv5rxLTt0jjqiy+umM5q3Obgfx8tm+PhxSznDV8EhlHzwPscnwTKheqtnvJGY7rJ/1luBjmbJwTDaKPa8e/2+jA50ArB2DJqaff25jMCx7YN6GhkW8UIRBMpJL0xMoQBi59IQe7a+kqF1Vym283HqVX8Dc1OrckWVrY85UTmrSbCdQSWxWCdlknnLk1lf2r9YXAaVuB7XvuA/wkRc6vHAOe1G0JSRJbPnMrqVfEI92lZUZE8XnK6a9sXwmnERakYy44gc0ynfxWdmR7Wr5p6BH9luZgJTQnK3QynFlkzlLpZEmIxTCVWXmV4TbxGRWS4ODMECg6swSp0G8U5+XIB8cB0Bv35+ttZEcWs4JAhAjudLBD7lQW57abXNlvQ4V3V1Mv7QXrEe3MOhG7thjAfKv8iCwxLlbffJnvRj3iciEZVE39Gfb8J9qUQTuNAHfQNROvAVSVen3WunlRQj8pzW0FNpNkPTXd5gnHEW7fC58aUP3SfYcLA36TzVBIYyqfsLdUgqhLGRBxR7X5lrEmIwi8W+jTVAZL79anwPqvp3Qhpc+I3JKVg+jqf32TgxO9v/CrAq1xFKviDCugzZxa7pRLqQy29rC4rLGHsb+RCdf0s7eyetimtd4elsQXxm7mToDgxU/luhukeXYAJkffs3FKbCc5UfQLOSxCboIEUoi4P4jYJzoeN/EAxwlulrr8VVdIbyskBjR922q/mN75O9z9g6qNN94Edtq496T4/35NzW/g+bukySQEj+VkIbvvhea3ClWQFBV87yRyr3PkGBwWWoT1ZQm6rucH5d7zp5hFgUXJVdgUQWsYdTqX7aSCFDGCchdCsNuWr0IsvsQvFx13iVEs86poxPmzLzpROFxguk/9/+A713uzYh5KEY6Q8urO4J3baFponYKNhrW2Ct3EXv0Z9p8knB6UAp5IJIKekVb/NOSvQjFa5JW9pa3lzYiHp4YdZV1gNfaWkNrZvcvV5+zEiygHdO3iUBWmeMqQIYZsvih6TbgEyTYhmHHBfsLIwtROIBdlkCABqej/x5+NfCqf5/ziatNkw1JIJXD1lBxTI+287eEqOoQwjU3Eus1c1Ce1IOk57Oc2QZb44P35WOIV9ovaMq1J8EFYrNICeQG3K8opysmBxedN494gHmNgPaJnuNbe6WIlkWwGTNUDKtmuWhLrJiiAyveE1TF1yc7/A93szvCRhoNnevOb8d73qw4YwK8EzikoqWzt9/zfsbYK08zKYHb3sedPco2QubXLsXQ6f5EWBBgshAFgJhSb/YTYp1pVL3UUqdUFtA2F0qN/BPS0IuCiZFT0lXuytBaOGUyzk4WHeRzfBa/rLhxxaCoIbKeAfB9la71bP2NJXhdn3MYcGLMqFLQJ/TRQ4oT3B9YXttzBkCordL56X7hefl3r4rnkDev72fx1SzcZrHKE2McnwKFLbNMYZABKPNSeYkLRai6m80exelyDER/DhU9na7UlMzA8+XhHTGEYSmXkFyBHHAlDQJiWUrdXpc5uVhb5iC3bD3YiYjxw46dfyHGpmYdFsycj9M3WsgzLzkgjwiMBtmCMr4s2jZ538rvKJe9+v2i/2yRXWITaAp267Dr9GPPfNlnGJ+4iKtv38Gt3AUy6BHFz4G3WufbRveyBU3a7FMcSZkIkGmelNcSQ2e7GeiLBNeUC25DuYBcN9C2OoWjpt4h5xfBIiLtm33EaFrAeAc16mkY0VhbZHIkz7QI1KWkPPYeFjFA3ZVJ7SZEG8+u8qZx0l+f6JCuqftzD5KDHV/qEGH8aV1DynlQSJXhDGDnMCM+yN1/SgUNsvNZSeCTPyRplszCBI9WIZ3siMlN5agoMP30b6EB0UC01CxySFv8YNpINY52vA/DO4kEh3T7AIGrgtbh97O3IVwngBRje+JQgrk03Drk7OK+u4Uhg29fWZDSZX2zm44PbNzjE51kYD+Yn73SHigp7l56ewDc3eVrgTdxztIRr6zhp0FleF33zuP1p9j5hrbyyi0kDKR65FUprwNjE7qRVPfjYLTHm9YY5Y/6lP4Rkg1e9/b2ZmCKg59XlCYQMs03kGMqFRAMAyITZqOOFvWD/jBQpvt1wvieHxbMWEOyiwANe1KUWFCqGSnJj3adQmFyjsT75BFPBr5AoxVWrx1oibPGd97p01exlBS/C3O0lEAVqtDUgmtgmIt2iAp8ZeH9ishN7lbvaWD3iuVcnYw+QwumsVVx1Rn5cGVq113hZ4run8MYCpsZd/SDNBY724EBYLe+AafOwKmrYNjQWV9Hd/MQf8KhWiaLIxLqDnmmjL8piz/EI4sXFCvRL4W+hBnxV26GXxPF9XyUKZwnQ0CjSyUJKwRUicNggOBtGbv9wN1My+G8kokeDtjCKvjOe3jAghhtDf2pczqEinWanu5Iyow5+XIR1S15nHzC7ovAfBiIL/dwXT5LL6kcHqxcfbe+9lkefEyimrqTSQ5IHyMjOYpRd8p126hfTPdv8Ectwt4vau1r/qFKaPsAtOs1HGJH9yEkgW97I6rcFhzVr+rdTQOeffFwboDkyhlEDn5ih6Wnben52IUZwYuvVmSTj52VFgwRvsOReCUGR82gFr1tBgCTKnrX2Vr5zv57QSdNCoWC+Kc5WkMlohxKmNEuRc/ryIZDo4gwhh2FqU71np8uow5Bvc1BraUU23AIIMC/7MlOIdLZuZglBrieeh0eTE39B7IufU21V+ZrSxgON/V3opsxY1x6Lab+K1O1Kquvm7LIwEAFMn3zIX/5drNtmzQwRmwN/8d0X35h9kh4cWaf/Ie4i+9QX72urlc+66WtsWBw2p/gQamr2G08B+pFGhDD4WeGvqJSo9Tg4JeHpdy7c13dV3OoeRYHXc+OBy1wuE4yVY5eJkszXjRNoWc/ErYig3zTBD/mSZ2ixfh/9HnFMTBHhue/9Qd6/IFoHoiStGE3v5T9LSiTNAhM/6g0xsnz2lVpDmVsY4MD+tgZKa4FqydzqlgdFwpj5P6ognrFR0cunBvq7W57jVwGGBpa/p7rBggBzYbdNVb7o+ZRuWBmf9uKSHcBKf4G4sbQKuBtqJ2q1c3YrbQX9VvtNNbmSe7vkka3fX9CeGJd2C2uzLqgFq2Ruh54f8aK0EDICVtHeaI+vgS4tfuvhtN4swwFim7hpfpwLghK5lGWKuegWaIdLjHxQ/NYidFRnSt1sBlhp5GLVvLAti/jh8rbzFg0c726PKqi2koXuuWParwmxzCETpIlaP7g3Te19PHsvRlLNBZ/USahbsCp5zAGeloiM5O5MHVoSrwCpj1rgyZJEbzzFDFiIZ4qriAGR7AJPM9L068hDj9KwprQy2wxiJclOdOhapXnxUNesOihaVuymcAIjygXYPjVAH2jvhCNvlaAw6MQWc5t08OH+60qvOR5w5FUTJ6p/+UxXlHGM+k1+JjzyBs2WwjPwMEWfDLxTUO7MuE9aJFGYLNS8gFI9ik3r8LGZ4TGY1PQqQW5weItssYjZM5e7tHbEyIhGxqOi36kz7Gp5JbMk1Rb2lAJvoCrhE2ZfhW17xSH+5EFITP70sqgRz7LgYYYAVHzjXhGce094trqFTnLAsxv1awgGoI08FemDiPQQrnqiJsZA9kjPfEWHjk2uwpOzS9m0KGeM6TKKLtL5wq+cofbAL9JH+3PKsphNVySXhIm8YD/EW1JaQ/m1Lgm7rQQs6L0Bm9jOMsO8Z6WCCW5cFMeAk89dEhfxSfJzIHU+ADin9qHt1sPClH9cR5bDZe6f1FODxmB38PwO21KxYRL3SRgvIGFtktDAwpXXHdi0u2PQpsXotuZjnItbHuGZeG+5/v+Xs1ANqgJJuX3oMRtA62STuUm/sJuAKafyF/1wahUDZY5enKH97IHd9vygQjbbL9qqprDj2sqgugBn/L3W6E3r9GFOpg/44FuFnCsVXSXgtm4J/jH3KXLIFrLjip44AU4vkTbhsm0GDHssxsfhkowkLwCD1Juyd4r+rRQq7grQHeRW6Aj28dp7Hzzd1l8eCOz4/lD6lHlHrxxA9nk9lLTcS+9cLxj2GyxAhL0s56SDjpHu8S54qtTXKCBO3lWPflH/OtzKjjp/Y6OuSRxB1pvPlX1kBZ8JJZI2PD1u8OqeiSBLzKheteuNuBYAplxo6XvEZr+EJBZSiG/QLGFDHt/B03xfKJoldWp9DIEnpMxtAhjWS9ex/ktd8Bjlh+lqduP/O+w3WAuPn/gd7mXFdLW2zU5k3mJsi+6YSE675pkEU/eosDxP4Cf2V/811WouY5x3cqqR8legtWicyMMpIFbiTQ4oMAHcNcKb3i8x2OG3GzTqW1/yUzlAMl3KxgPoxrwpIrAZ5matc3Us28YkTwczBYGqeGeVomCBQdAQvVddL/afXUs3aIphAYiso6tzkKWK8SrFNJ5NZ/oC8/AIK2b/zUyGHN2pzQknyaBjbBOuhfNhYLwUGlhamm6pOl7zbWw80R13sf9CpJVxjbrsp/4BvAqzwTTVFDpw+fyDyKKUCWMbWYtuoxEJ9k6OzzqLT0TePNCPF/a1Y5qzNU3KTKySTnx7RgVV1uXbhI+DvjT8zik2iosqr635tBrfOB0qsaHAFLOc4m+5GCmTvx3SgXzGlPxVLZAzcwCCf+awTCyN0IzAgiCLWXpBR55J7qO9hs3++Xmh8Vd2XWGlXYYhLBnHCPquEwdcYEFhAw1o92yFr2vmc+KnwMHH7VG9biUpCU4gboJk4+ReBv5EpvA0m1isoRyAr2n1+jAkH9mxVizR8Mxra+Y4Yi8NHgYetadom5Gfc2c44TqrRHufhwvwu4UTGvK7oXPrwjFqDlM1QFlqqISNDxWW30Wq4+Sj7GEXgGekCqfBMU+teYeC0bXbX9rtNszUs/aG/c3Vhe/sVc2lgdJsRx9xi+bU8pRfkCULZzHcsE92uVKK3OF+saMpcWwIloWG4d9mEPy0vqcommwu17MV7gCAYoKI2m6m1VYnLvqt2WMer4j56WKwHahhD8yOSkXzmaKEm8k/ZgrAiHpjQWV3HyMEeINFw0iQeufzaezapKzzStOr72zY15LPwuxJzPa5NLXAnDIIOxOzyJO5kq3XAoYKnbMnQScODG965oQpw/QskhKlWYz60sy/U+hkJ0ppyJl+mnIra+qUVqvE/ed5fq96xoJEtyHRIGO5Nv7OpsWXtEoPKKYfvEZrbIA1diQQUNIK+udvA7NxTZKKAX5zHWyOzEb9NTn2QtxNvpNN2TI3rsIJCU7KJaOT1gUW2HPwHcKDrgO1rDJ11oxMUUjwV3DBdes7TfNNly7ZpsNiX6CJJt6ijtQL0lXsst+fnvXprrcUbDH0zDJJsBEC1oyFlOx7BO79/3D29DyFkVNPjVBHKKGRo59HjbJWMvZo0qczmo6g/3LgyuV8lz2qr9t6t2pthpVreqI4p02ukI4p/o6IGFnPRM8LJUxFkG7qDmIglzjpD6W75nsQyBxGlyhlNWLmCieyni3DI7mrfyiDFJHzjEXqUift4khVxdrnd/vETk2q+bjRZUIXg2+nnRtG7Z3FKw0PpdGMZhcwHf89Mpodx9zYqM70k8AO4w+dR/QhDFLrI7a3riaZBj0A+G/PiWg6igPophdVmJyYr7pvTXYjiiTaTKucrUGUyLpE5xO4N+tTijaB62pNeUyl2ffmu2IYweCYF+BB4LmiCmm+GoLuwd3AFfOdc0XamAtsFfYDgz1mf89VYApQ2upeHHyKMMekb+j+PLvMeXjzRBAmu0K7v8OO6Z97qT05CRyjlJr6BlJg9B7aJQGV8Ruxh2CtPONTFBFxzUioqzKbPFZFt1gEMu1a1JZhtYBaH0slUPtDkDiS5S6DaHdKod5f39h8RmpxUEhbFts4B3FpaDRuM9dRXGj+eFNqoyBX7SUOZ9DeotkSkrfPruas2r2EYTA5MH187NAjYxOQzpcGeN129FKZUBThBUiQDSEZk8Rumn23xC1BwcxdJP97rK8wc+cQuj5oOiYB+0+SBvO+gAHunrqreExYJd2/qerd2f8RYKgq6fp8n7cpznvVSvUgpBwZFRj9eHpxsSPfW2iu72X3mhCycb89HVR7d8CrF8wyP9so6iOmLAu+M3p1t27swlP5/zA6/b4dq+3QHEKxNug/t8WXQfq9mv8/7dw0gFwZXqfWWyl4Sy2qm0Yn/AefAHPnXMUUC+Kzwy/BMywm/c2O2eLvu/rJfwX37S5/bwC2xtbCSCrcPquYnAeOo6Zq77QsC9qDyU3dNry3IoB4av/+tkLwssmLm3pHWPUvWF016ZKbVz6Sob+8Krxccx11lO/BEkVpOADc9T2qKs/qn6wFHXT2egbWQxEgw2pvT/YGMZi+TA43dmlkxmcx1jcf5/2GhE5QFl6u/arip6w5jjRNVlsmV73J5tUZKAt/8LEhJLuEjs/ig7OV1drzoo7AZ8FO/h1gThYlv+kuZ0XGJJGdbt7IOL4b1zWGkRcu6JV0Q7vD+srqnWFfdBKkkF4RAfDxI8+kCqhjDU5594Bto+vO7zK8bJaccyApbZn+g3KzVTwVaSQzvkU1E7ee4TOugaJt6zg400b9kz14tq9fcv8y5Nnr5Nfq0gOV0BO1/6+HjtXVLDK608QqbXylwsZTWf5FczirsT7Hwk6dY8TLbzU3pLyGfqc4+EAMoZ8JII3am9rN7gb3kxlsX8z/JaXO6ENDwD12rddyf9LA3u+IwGyJ9HkcLyUqa6eCP4kQxeJ8GgLHHQ4tuA3VZ4uaBqYFU5CRjA4ro5t2L1jjuKIpC6oxM37QPztroLWybvN9k/vJ/Npe/dlsmDK9/5wmtM9hWSWgV5ljSH2MsxUeQlyUTMo+Ig99+g9WeE06mwq8rTPOHN8rrIkuIDIn1XrWg5++q0nrRO/Nad1afbRoJ42Pb9Tkjb+8Yo8ofFr52vCUJMphJE+/JwHxjIVEfs7e4Hlc3HPAok0azVBDNhmXpCfLQh7Ms7qSG6K+9a8YAobWzsYvfpPIEkj83ycfy0AUZUd5bzB4WY7bfxhsU/NsIujnn0Lqs1eZqeXEb02di/tvbjA5k2SfVhnCiCcHvHN6MAqSHkroMWnID9MZZF+iK+ZLCL4ts1EAxttzowJIbj12GBFJGcdoHH04Ibi8dvl1uZPcu4pk+Xi/lhcb80089PVvDLJ1v0Zvklm5UOcrSog/aPyDafD5yiS5PiSyJ0ldM4htvlhU/4VQXkCVEZnY6+GWo3hal4uBlu7cNgQOK+CJs4bin/MvYKfYLHVWSwgR0qSSkok+u9uMlvUQxmaRpa4CNGGNSJGCD9NN3D+XGYXvsCU9qv0A+fXpGXUGz7lYCVzwAg+FtGlyLScmbuggw6056jGVV5OpqSwVN5D3J5sHwkQ1dQjBMHe1s/lr4g1GKJ7bOxPeshbFbpw+MyJJyjU8RDx0d4HBCY0YMBEyTB6S7rAf3tg1XcaU2XnJjU32BYhPBgRTTib4zTv+DgaSDzmuX6pDMjCojitYQBrS2h8BUg8oL0NjmLjxUxSlHxoprXFUz1m7t1Tiz72vTaZWi2jFNGwM8ZAW9D8P91rbJgRIFlpf2HjWy/RlRgRzxiNakNmmcfaOoOKFZOlFhOnY7R4rgOGbK5mWzYJMq4qFcs6IY1utLCLdEuEplZ1IQDFpl4/hiqLfFMR3ghwOi/gbJNCxw6t6QBGpJr/MHzEtBgXqKwy9EiEIT8Bgsoa+rKLIKJ1xyzwcRgYdeEgqQ6jCLURfzqB/M/v/AnQYAyfGIELPAOTFGkS1U5dPebEODUEavb+x9or6+E7JRzK/i0dxN7cU/DPF3qtPFsYe7IXhfzM9/mZZw15MdHwjMnsHl2fexdgs3CIvzdScdNz5csH2hVtGxeI6aDeQHYM485zkUN7QQO+ZMHzaWrO3EB73Mg94sEUMp+0Oel4C+wq3Y6qbo74shY+r0YyupgpGiwhjd/RR5uy3zc+DZ4AwBt/TRWuOBaTxqKe4w6RNZXDfmIP/QUQPzhCBA7DbfeFLi+1xMZGmPo38EgNW+cSreWRitu47fln+x8f4HDCiNKxJfy8M5fZOOffg0Cqs6jCNEBEp05PDLbri3G2XRZcDpYVXajxy3HPo4cCO57ZCjkwyRcllxN0jBuGnanEi2SHdca6vVL4x4gep6I7dFTVMOybIFFp+kgiqp6MGuyLXgOG0/9q0Ldx43eqedWCOGB04oxLAKozUmECXDGKOzocoiW4Zn0mKAWHcCdfEHXYfj7PYUs8uu05nej/yWPNaXUNmn/0nEj7vh6WL5APxq14GN1Q4cF0WHDYIY7RTD08OXDxlDEG1ylVfFg1VPAZzxkEYUnX/hMMy/dTMBn3aF2k5vEpgww8ILnqJwBJEnSeQFdBsUx3J6iN/rQu6dX2SZ1fnVPPNBWcVQ0S/PXNaGXh0oCoe8x/lEUf9qT8m+a75G/qRHxn3uPG8gykd6rq4r8tjmTIFH+Pcx5mQ00yyeC3BwwcbOzg8V4JrpI2DHg+lPVVEuZE5zOz8637GA3gLFPuZnMgF+NbQf7Z4CbsmbqafyEKIcf9Yn077XF3WK0hxvwauijPhZprRw18IX8QW2XlK79bN4i1GVFqmSTZGsb+Z0NQW/ftuR+thOj0yo1cZhjVbtROvYUBaDDs27Hjge5kKd8cPxhmYIijrGtByGA2PHrNTfI2RhACJtAFAwRXcOWnjXgVcjnKQdrjNgZTtdcvscjTJdUkeUlG00hlyDSHOiizqzipCaqLiRIGlD9L/nf/a/E5KwC3hgun70X3Fu5Z2GeDWWGTNzqaDNo92r7FLZriFpC88EbXfY2oxHrLQoezzbG0HhWbB9YBVRj7kOfat2uzxKDWq/BQZRUy1rcGf7lwkPpdikxM279LwVDn+0lzVjB9OB+TeZw3iJvqf3sr1nGUBMzNMa0kOcLMEi3caScJNgCQxg8O1EQvJ2wKezO/gFtUrJjZ5AhtRoxKG/trUhPHXb70I/nvptJYV8A+4Xd9d77WFiQ2xB+l/JlyNpscEd5S5n0chC03EnFGVGSKaBRbraDowCHPrPcIvV4P8omgH9u751dIJJIajS61XLv/xoy76npeQq0VT+dutmAK/QzlCx5cqosDQ4g8u2y9i+hWORX03hDN8CoAZRijBhdXO7jtQjpF9Skz0nbDtvLPyAukgXmdYFIuTgGsaiPbKOLiJCSxwjf3eVwLLlf8GG54vInh0AhMOmZ5Js32yDt6wgbtkBpUqnj0h0ZapHf42aly0K+GwM9dg7kOtGINEZ9Yf8mKr33FHXvgLxS2xxrt6nS272DC5VMXWCWhbgU79p0leYL636v8TN0+fwWwGVm5p/88F5ewKzsExTQL+cKhKE/r2D0oyM59C5IRV2FKHGIjXrLPoDAFgv89ZtUmbpCMlyzTuWvsUvJDpyn8LmKLYgLcazpWOtMjOecddqwc1cZ71cZOnLInv41kLjdhKso0GWBFS4/0hA654RQSBEuQSSu0+5z4u+r/rDZbLgNCBATKZ/OdfUrtRU8YO5boQ4V3xZDjRFXS3Pfv/0OcQmJ5aUdBB1x+8t7LnByYTIjd0457cHgTVLM62CnmkerWlL87qcYD1LWDXt0i9E++q93nWf5X7ethO31YbzAZX+9LQXeH7r/ljpL0b+h/+Jw8udI0TumYp9aT+2DND+yT49FOKCUOZ4ec9nIwuGuFVYUwuoPI+kL1TzyxsmdECTkiwKM3eoNHdN8soIz58QaTohSCZh9i9AOdYFaN2N8vMI3OI5TtQBj+HVkIgU7Z9ua7X71Hv4L2Lsgt6TAJyh1216RCOXluj59owqaPWmmzynofg3O9uIoCLtoHLM3/LaklwAhB1C+tjjdabNeWrN6iCjG2psU/6p7p4qlxhxCwUDmLHnBrI4VZ5iuTf3VGnQWyLciIhDYJla4/fB7cFh9460m6k2DXYDbvktEg80EPhmdWCPtjEZTTOmLVrYCOuZ8t0imeKkI4e0l9vMfnwvmX4bm6HuKWmD/g8ha+y61QniBps/9XKGiP+sR9eSuo8zegScjhiPH8W8hDmM7aRoHg9IdM1JiLUlzFIdlFKQtrIsI+ViT8LEF/YLaqyH1xj+oHirNZElppTl4EbSSh5rSFq3Eg29PVM6edANI9LktibqAR1atrAofLSTpuq6fJDGrZMPJv2IgeOf3e1C8dYk4bGgE/hHoMGMpkyH+HOQjjd8B5osjSrUUnhncbMJxHbrEGYGJELq0wCcjd72w7FohI91qb+x1YUUs8LX2sjWZPVE/1aDKmCl2bM7oKKgASo8eOCQhPrD6o5/1ZMDWI6L/38kBdjIgWl52OKII69CsQI9EAs3HtNL4XmN2ZZZxDh0kFgDQWctpa2hHkD5QaZeHorAmogZKYmD/rAbl/AFzrrB82gpY+1eT37KcELUWYIk4aTpwh/FSeVNEQ4nhGj63SANjFGATaHMiPhywgUEatIrcftElQsylkYeHzO5HvvBELo39qntTVL5Sg8ilJVub1ArKkQp3cbnh/qtWibxVasa8HsWjDgIPp+efTrhHVXA9O+cGERLP8NbW6S+1ezhREx2JXwJOBrvz/znHKBnVVQIHpjXP9nadnehxnUu17lZjvkCOrDhIv8TkIs25mstBBDastcLlGQiIhWyIqqiJg7GC8rEIAmQeTjYN4lI82O9N7U1zDJg3sY9LrDKfDv3G04JWofbV0UJvq9MAxB25JOTZmgP0eA4hb1240jY/YM0BampztNAtgepK1p87QzopzgNgrcqcDB4MhQ0alMy1d/gnFa8OLF12SA6u4s5hHHvuwuPrrQx9Q0BjUjLqOUS4QydxGMOtfJ4VJPDRl9eva73LOYexKID05uE1bL1ZqYRId5iu3y24v1cHRNlKQNj5OtcDlIwUWZl8N+GoSF/cTk5h+gqs+pHF/DUk2FhHMs1wxTLu/yvZ2AZKBuHaS+9NmHS1ZCCO3JNGPHmHCsOulqIUdSu9TN5iW5kTJUjraYswiEMMQMK/40l3WbFILP8SUtg2icS3hhvxYFPrTWjQrQnqreDjJSmGH+Ppy40Nfi4pTMdW7b/5mOhMyFQzK0HaF99/SBI5k9kOoHeOqTU6axQjceKTWRjPEMXfFsIKURZIDsLRG00/7NUcx34/RduZOIxmeCyaKwFZbnlWHrbp+V+IW/E/DTwXBszXOGajVyyv/a9+J4ienu+wUBKybrr6DJsf3Q01TlzIvmH9A804/QD+SVus5U6nrzWF0SS5wMYSFVdLHW3y/Uhq9ZlxUoq/I9NW+Ebu1VvbLG0K1/0DQx5LXNtRM4r+3lPmFhwg4HMjDL/EYAyPugNOi79ZAdmKSriwxbiCkXe5YeuoGBtvt5BHF3/Uaz+aZaa5yvrm3WaapHbwjmf8AWnTKOEHSGDpGXF6vwCSstmqcNqMj4nEn7Z1nUOOztWmvJqDEaNUjx+qd4fqttmvnK2vYStJMmHe72kGn5QjiHwESybFUt+AXcrJtsEvsvYjldXyaMa3WW5DanufszQaP3KDTEil0odLtfjMQHEDcqYSzzP3UjZO5sF6aw6zdhSnJrD+loxfhoTikD2bd675gj1YEszdpDvRb5BndXgtT+GqsmJUgTEnA2X6BrrXC6vyoTKzuvQIkr0UTbwUY/ZzX5UhljbFmnVOlwBaKdqshb9JVYl0pAPe92iMzDSa+YBUsqyYAtuZRVAcE/3rJVW/UmfrV0J3l2CqZ1iGPL4vvExA1BQPJdGjgbto5m+ryxgLlhy/SEmd4+wNJ6Id6E6RPWdVlQsZvTFk+Jr53X729R8aezcsDu9To8vRFh6VbFMuJKB2ryiMn1MQYCTXPNeLovJxswWjia2RUpsJFrqY01HrcQaSWQyAj71HZ1i2IBDcXHdJE2+mMn4tn8ESYhDA73RDTDPQUtPpq4M2xAf0Uya7eyJNMS2EmzG4PIgkn+tJy5nVwDySzC4dTgZMMhN92H3vgPDgni2bq9iKkPqlRyNMtaFpKV9LBpfcbEAcX+prorMkPXMsMeLWFH6PIzEbnosTo6ydQ/9xmiCCz3pAZqa0ZwISrFJyJ43+6a/VQg/SBKy11h9RftYABXUMBJqeeYcX6+omeDyeu0zI7XSuMdNUxH2et3F55oitcEIBsPspqrAOMlqa/guCvTXXODWcav/Qi2MWWdwQfbt/vvR9BI+gaRGCn/j+9Q6o/OVhv+kkrpof7hQl+DxHZYryKPFt4kYGXyHAVdHFfcJPOyGQ5RgPrSpEatIRCSTFY1pR3rjk9XlXd9e5ZAYltXCZcSpN+gA2CMYyov7VCK2T2ozL6KNylrEszHoOLRcUziD9Ra84TSJmRFxqM3lPaSuEGftY/hwxamZNy5U2ncTTKlYLi8HUd+Am51ho0FhV6DUZL9aFNPdyZ6CbDL++1VIFdChdlWYmUjLIB/nZi4I2ol14OgRHIMIngBuj1ABjhyJ9IH/xDgYGdIT3Tj3Qq7hKj4elCfldgTSNUHWnnHBdgkmXFDEjxC8fYA0AlocNiV80LY+fkRXpS4wTyNhQLcVxVcuS/LmP3gujBVhEUq8n1vDXdsKFHj07BYEYpf1JTcc/CqoW8wjKcUGTy8NIpeYjluYZRAI9l2SC22v3wCheAzCMlDgyj5l+5dSOODaFGv9wrkA9wXDe2yfrNRbQQKkQhECbNOkFuDC1VywaZRKkLcs6rH0nAC3pN3sD4dN8VWHAadmoWxLN0MpF/koQDouMe5i5yOB480FYpgkYHV14RyX6uGex6fwQkUsbpksFLKBLbgbzBZ8obvMzrsGwAgvq5fr5MuRC5kd4LlcrlYVSqjv+QTInPfJ15OnV4rKQsAMw6ObtsyceyPopY/y35+bBgo7S5VgF71PUPvheErYvoOQ+1nFHdC2ndBI0ErJlA3N5xEKG0zNKUgMAzgDzfz9PqKatQP5RKp8QlcoMtM1ZCCt2W1TSvt1sWwQG0V2m1JpNcp4/9bpAQapqdZ+2W4B7VYK/7gz66pdwPoPHjiRHovWVYgzWHp7tsgrCywsH/NL49w81KdRiha34rSVUDW8NKzPC8byQXPWF1UZDWE4tPQ2hYexYjSAXwmlxpEoCgzxO40hj46eDXAtdyEhUEP1LVSmp/3E2hNVaEeuWvzi7WQgKehU0rz6+mWO0iLDRl8jBYyg5c63DlgqQ9R/QDysN/N8X3wd13azd0JR6OQrFXR85JUSPiNxfYli9zKJNdoLcRHCpjVlPsFLANKElG1u0zASmnKCQMdru5XrbJJ+H8fKXnJYkYQJhZO+m0S5CFqsrRuCPiRDNTK7CHhL6MxzqBR4P8tufzixRuqfAXLGgLMwhHeJrU6yg6sUsg1nE23yrs1G37UguU/OFtz4bYifqyHqeyATK97G8xqq56jDXKWL+bNO93SJYNe1NVde4udUE0//P1yso2QD3Ll70JFPi+vg5rEJ7CJSKOpeCW7dpxBVxSQRAY05aidbmEB8PW5Ep91Cj1AF7Ur3erUmW4F41+Q+p6N+a/rUnr0bHsYC9jOtFkXOxq/NXCf2MEDZ3Z17LnIcjV+H2Y5UgdMkCPiml05FW7uEwElxHHSNNqTiF0xdSnTMSlcilg/BEK4KccrUbPsKeEamH2phb3cLDgIEJNY+x8aNwBJNTrYaG3M1VfID7RQLslxsjWZ6BQEts6kOE6ggzbnkU2h7jaGYM63difVVLuRudQDUkE8av200z9aNmbnckO6p7mlQhYp4ZbaVovxSfmp7gpuEvQh40PmjOp1ELXietaOR85LYXas84ORiH9/N0zqHzDSOkNvTzR/6vaGy5ktMe/P/xjQuuNe26ntW57U9KNReS+2CCsY3+OCMcqXhc7GM6ne3pV9l8x+PJlrW8k2+GnioKvDsDHyluRjvtk79oMswls1qscKk5WHk3U0/DeF+5QcUiZDqjVf79gVjhcL9nqW5UX8mMZWUPgzUZjGjOfDcljNHpYVYg6T3N00pgVxWokBbOwDGdeEUla7wJOtIj2rwQXbMTHIf4KSGQ1Y8jUBCp4Fqqw3wLO3SfLSaRZ2gMSWP53EZYXgglpagyaDHz01gKE9O+bwUL9qoosPUme7hLRzkAghss8+Tp6pKq7QPVydyI1VWA/0waNkf0pBYRFqewALEkRYnOiwUml1Vnsa2AB1AhiqicR7FgtczKEKQXpSe+6R2o6O6p9wrn4xZynbBeK0zqFs7oeEod8Oc7RpcUsu1ljCYZfaqFwRJx19teXJeJGQ2DFZ8E68BJCpp7/89ioSFC7noHEPmBWPDiDbu1KMshdnK8+S3q0RLGZSDlqHbl3WPo/vPEfR1OG6XSuwMtzuhwJtrereIbVS2SbsCe8PHV75w8hTPGZJm4rtRgGE0i0LQnXqK9Cr4XKGaZ7d/VhKisA3NKriPVOrQplC0onLzlmrGJOQpgg9TekeCaEMIiJRN5PubkVxpJ2M49ibLyVS4ble99IFR8M0czEfoVWWRFcRIdzw7IWI422lwCNJy5/CIbOBGjpJNUPc+PPlejxoAc4L3JNitRE7FAJ9LHky02qpOqWfzoYsal31IgeYN1doqsZ7ANRxBy5XTQ4IqXGU047nEu9LY8n5A5Q+euo/pEHxyLMrq7EJX1E+BHM6fwmKlUNMTS3gO+dOhK48i410ZFxIHWKlL2lS6/kbhgt3wy6k0XAIBGgmY9VX5W5fBZN3J8V/8xneJiTZGiJhTAqfAQECalsigMbj2++moYMf8NAWvD2JV8m4G69MQsB0obZKvgiblfZRUXI/gjRXnHLrNJM8PsSSgig0ZJ/64BHVCotqktaj/q0hOJOZ8HKx7Lnzsp6QaNZwOiYuuoEdvyjLOFurF5zgHycEgQrKNCRuLqSoxKGnREaGQ7mOCTdDMCN8uGf4xhEu9/IcNdBg9S91RrKV/N78OQfwdBgXj7AFeBUReRpqxIXXKxOM82E7kkTa1U8v6h47RTCuWlrz5WzGW9QjGdQvATN3/xi+y6N9RiAWTSPaAvSGSMGtpoa8elkO4Z+RGOAIoWusRp9R5fMy85tqlHZO295g+kFe4cycPfnFQdtGpd4r5Jr3HsUuJ9FNzvBH4y1dvCgL9sKPCQX6x+QgDeORw6X2FzviZGUsotpXikMvOrBXZJa+gN0W1llLk3ePvpaaNjpObPhTRehjnjLzuTwoMi6RAf9EWpmQY99Iio3D+dQbRXofwnkUGbAMspkfPG41Pw4Hi3kgxJYzL4DJJFSLmY0/5GYc3jwdgFCwiWp4qMspSbTLAmcrh51EUqrmGB5uKYhlT9JYLbewEwKpKI0G0EOrzq6bkpqo3d4W8kxXLO9D+TrjPkHYFySDSfLHa1s+SnSCoeF+jYTIIWZmkYnI3L47QYdpprWjL5LUxlf+J3Ut7S4QN9oSPYWLmFI5Oq2rgv7m+D5Bffu3qyDpP9U4kknQY5MjFV2RHMQqDJLrvM0c0nStN7E/Xhelamo2GVA4KL0TpFIAi0IWFaYvat2XHd52vcFQfnykDzG4ski/Eh1UmCAlc7taGzwa1h0uSPXZ0IkvuSz81sPR0eDBEJnnKA6+6d5+Yjxt9qiKO5vEqb1nKl24TcjQpENhLSAQ20Skbgjrz+zqr29LM9V249UD5NkaA9X9vOLhlNogdbe2yJZ9FItm5UIZ0J7sroI08mNDIgb4UmFx/yf4MLkBpXoMuN7729dMILX7kLt0O+UtP1hoNJcxe/DRgUUfnTD123YDxruNw+Bu/2vdcKS5kk3alDlTZ7QnZo+/6cZ/eGOpcq7orXHudjwpACbaECvsm9iWFQ+ow0YrThgfTs9H9R7A8dl0ujTuiPbNiTbLlsfzUcqzy07rGf2zGPTml+6tiLiFYD7pHPoxo68nrWQ2WfxqYHo3qz5z6irneK1A6yXL4KexXHDBBJ+FbseSZ3axvhWrkxkDv1RWcV2wI5WczKqHmya84izSuj9hhIgQmwMUORB1LB+EQy6FoRZIHKQ6wSTqxPk3VthI38a+qih8xkYTaQ8dn1lVd7Pbn7GVH8vRNhFQNad2NtCTg7GvHtKUhMk4pppNn42iWEEH2MPJyrjkcN7e0V7HE+CBPAfOKym1oEK6jYT3iBYN9gUGqOA+N9ml6QY9zcFxoa0e+7tac9naVb+w//VuNt07tQBf4yOxbUaLdSnBu5IZV3/1e76JkhvN4+8na0VrG3Tl92lf4LOLW8DmnNFXxMmAe0oiZSzBD6lvTEuKH+9iSfvC7QejGim5f0YKVY+XJEl6jWnPShs0HtkUINHRm955TN3isl2P2OBsYacFEZzNfpin0/zlPrXdmCYMhaZTzGF+HKIrXW/HJRxwS7SK0RPseLh8gcFYM42nJVLEiQXKhxWZLaz3yXTLFhzdRzhMVPwzqg/Mn6Lo+AOgGIVH1wwX2o6k9lwegFF9scsimHtf9r3s7EZ4jw0ppkMUJHCzRZPrjVZ7Tnee1ASYmdPCKxqoGAq15o2/SolvPjrdJ1Z8oLvcKNBCbAt0p1Yc86Lpu2L/wCxlZ579eQaf0cK/Y7y901eJA7DZxL15RbfqZYeXXmqsdZzPLGmaXy3lUnCPA3JOfdQCf6tvAxN/tXmOuT9Act4T+FZbw1QI2mFs2bn4+1v6Dkstn19dgy8zKKdfEPu1fTB5m5FvrraRO1FzjlTKwYqmMalGepMGv53l90ojO+h80jaxw9YdEGOnaBsucS1a+WEHCl4/DJIWyQEK/DwmXC7adDGCLa2+d2jov7lTyvYe7MOyENhU/u98Q1XitaLa7leuvCCJwUvRSZfDcvihyDSMQMRXUGF+NX/+MKI8MhrVTUx+D73WlSm4miC6Dxzqh6v06xPdY98feJhYyzCHT3bVaeKh61gI/94hJY1KHNy0TpyKVHih+6sfTM7QXe7ObkMDIz3zaus0P5fMeN+rwu9K4XlFJcr4xS62cNBZAUdz79aOjTY8D7IyuKC10rt34G9DBEICRq9sXUMwhSZAEKkhJV5QLOdRKKmUpDvcKn/ym+fNYMfAB/xq5mbl7UUkr3ZHn2AqrNKHcZIRzBqTCqV0uW1uQFPd16W020WJDVZFirnGi/dQ2ni9VVVeiCMId6MyrFKsp/xYfRPjY6HuxctJ14DKrep78sakUzmjf5k62+ARerKNJG4a1DasB485EyRuLdDu3DcXQmbF1OooRD6mRfAkvbg/7oS5EzPTAEFHxhhUdZwYcdpveJCBm9f+IRRUxY2RQyiHbul8WkcRHbmtirQEUqbgkBpYNo3O9bFF63oVuDWoe3fzCo9NuUT3BEuPO/4boz3tx8DNyMaAUc0q0gbwI/zZAd0kZogT5wKZ+H88Pq+AWKj9V/ycYpnhzSdFFGZO3UiLCF2CrnFFCgqmzAq+Rmy7m97Xj61nMto+MWaymr1u6uChKQWwH07koIa/45J5qOflaQnFGdryv+fx1HpqMqQtJr4pcr9iVXVkWr+3vC5ky8fipme9j2yIpXc281Zb9haEH4i5w0Lu6TXvUE/NS68/aPcxCfNUtuc8dpXKbwIzjlPJ1HoPMhcUFKrB+FRqZ4eCWy1IYNXylRFGKsaVy4uSNw1IFwZt3K8WsW3yaV/TaTv9hx8n/f1W37NL4X+JToMZNSK5brpmLpxbtZZuSBvoRqencPQJTRFcmRpWZTngGwXuYdEu0hgAFbFjCPimM9YY3h4cLbIbEEOspl5McsPeyItxcxXV+SgN3SMDVP3eBShqEZjkR+qan51hc/kj7Rh1FEK6TBSN24z6BmwCxddKFfqz9OEPXUE/6nZdp1APSxz8bHe8/L6BxnMQtbuRyukCQkzN07/kiq/Qx/obGWGcv8TADKh+TxrDT7DoiJe0KurrmLG2jS4Mu8ZQdud/l/IwMkJkLBmsUUMmzAAYpySScVShj541yH8UfuEngj6K5EvYmT/s2YjHucKh1CT/h3JWn5xvaVftZggfAXtIHbfKPuZNoW9WwhCARKVr29/zqpnXQUTVrhtBwI31GJABbM85E0QHgD3CcD2/R/sKKPDSd9rLol6I4Kx+Pwl6O/qeX0NlLRteP8zPwzIWE9n/8CXp/kMd2d4TX/JbPgv3/PaqECdTWsLXIr8hMc/StqX+zCaBS2UBXcjaYg5WM1HTEkwlI4Gacc1pH8g+DnOaN5XWrw8k/J9Q6g1g/bR3cWtqgh8dnFjDHwgFS2HIxstfM0BoBloO2F6z1Q8zEZ81TJ6ToVB+VR5fHiu/GPpWn5WQyBhLGLDD6oX+s/TSy3JnWSXO6IucNoOhYJnYqzae0LyizPE3IM7+O240yalGohhAHBOq3VzKk2BrssFwQfzcNv/GPHZ6Gp/tfN5lqfOshA8UlnFOBoXUImeD5dyJGEAcNwtvYCqa43EmBbRdNWiHwRbcUroeBtC/O1tG1PCjJsLHowi9iOh/wZ6I11nbkAk8d2T7UfFY2RbLZ+yvPz3MJ2k7ejWuGN909TdIrjMeKkyEFSpHV2kSOjCjIjqi9FKeZU5ebIKv8tKGOY2Kdxg23ZsvuchuFnigfG2ivRKrdF7VFZkYTk4KU7llxLEYD2wcZqneZiNXfhIOPJybICmjH8Kh70SNFt4IhYDS4Ry6NTboaldvoSyEnT9jqObMueueceH+P+3Q1q8bf+DoCl/VgUAlHp12irl+y4Dq643466LGTqxZO9j+Bj3QVLfqn7i1WTYfQM0UmIoAvR3mSg+W8UuYshmdWdjhq29HeP/7lM9x5y11qu3N9DBb+96q/dMR0y7U6/uBmb11fYiuHh2UKfeI1ZilODLeNFC4WB0zl3Yrp3iMlfcNlTXtNnLN0QupgdnOcuySAv8s+bWy6LyeFuzM+lel1235S5CFIsdtt11prloj3ozyUVEoS14JLWQHPc3zKxg9seeWj266/mh4JyfnzknDVEwx8PxyWzaUdhvjuxxxzlI+OcUFerhs19wnCskSradkrqyo8vjV3xuTSFisB5RV3WPDSeBSxhhL2wHs3KJtmMAFv0H2wo4QZOCG76KFgBf8ZFoI81UUMZnM7oK06upZbPPRNpfQiLZ18dxWTmLDXuPP3G7cPSS4ybr96REVb/u7DkqeNw5SOqqB8xotx4/bnkO1O3xt3i9kk890+nc45MdyGS7nrpZcyqiAo8A285PXS6P2Dv4amZY2tuICNufMScGBt0594vo++40KMmtB3+YvUWS2h3NodZxMta0H+D4Y4eKdUtMfMd/WQD0q/i2d/C4gF0igi/B5cKfvyKe7deJeY+Ct/UfyF+sMIjftjFUyZcinhVx2Egr7vLcTKh+vd88VfxU39/snrgb9OWO9whsGOIG56zoLKSAnjptXi4kyJ5B3UOB9tFyVXn5/ezkL3NkgspOKsv0pkg/d7jma8GhkYl8BPCnjrMpJ6MGQICmAkD30950UJgDYOqbPQTbaP16IPKDeohYw6oBxOnFxvRw3YsTJzq6aeERUMbngglMk8m+MHK2mJS2OzSskMPwUFOQTECuA92ISpnj9V/+xNSXn3qKWd/RDD/GeRDtEHmA1dAK8Ij4E4W5IaoR2cwrhmQqnE09cDGuxgXFXGmBB37kuYntVpmrT52JyvO9q3Ml5Ldv+iJYYhMh/tAi2tu8dGCY+LkibyyWdrRkf11Pj14IoPK/ALDb+q8hRmk7tZJVajIyBOnQv5fB/wOWRCNmsAV/8Zp2sWsPQJWXbylu/jPpzT81zxhsBg8wuSugZn1826JswEfRZmsj4L2K9NxldLNpg8K2q75vph2eV0FgGTZ9vtrl6wkqeeiG6Dlk+Ssug/xIsUaUizyO+O3o9ceIGx1lX2R0LHG438339QsYZSmTN6KvRYDV5Vh0Cyp3HsR+nSDXsMI6M3NxC/mGe4AaLwnNRGPkx8QnQ7iVyDux2DA9pHhsvhFmvHQkSm6r2jrhxwIKUbYmZHW62xrm+z/d/k/keWcnWkAWYqu9EdoLURMNWw/Nm6SR9FxD940HHdfRMEAhfPcd2dGZmBPklmjl300ZEc+qsY99am/Ke6OCaR7kI3Y82AGtGFyjrUphdsshoD63u3BPoBPVFc3ls5z6BrAde3wZ77SXhiS0SAcgDnfUU9GnNQPPJEMVVm8lkCU8qIysJHoRpXr09vvwbc1uOgdGymzhsNo3/SjRuWQJTZa/pBLyGLZkECcUWDqXRwqh2rZGcFaWCXstMTFNevsG82kyKuWbiQLnqCRyAwc5KrlCI8E3AeHtC3dG9aJs2ogs1w0IjXh9oNaqqv0TCCrGy9i0fGV/16pTminPdXH4GyqMQ9FWgrU2tvNhocD0MteE5k3ulgSlNPCGAVX9yD3g22DOBj5zoFkZONgcztprPnfx5uV+Cs8MLoPtBycwj0x1sQIueKalG4grwDV0/FEHuDrTNQ31kevZTvREnuRLBU5yE9dJxBo0mqjuH8HbbP7gX1j2ORSlUTbMpEh8DvhqNlTaDe6W8veK73y8I7Kvo7ubOPHBPbG2IriUs02pMNTah2FbCrU4kyzTGWmhcIr96tjW/AZF474QDTuzD0xBOXo2UILlHs+rr4cjAeOKJvtfGLrEgwke8kxrG6ALHF92lpns8snoTBleKvEEI6plTIIL2qwyjxg9vJqebow6NDMJ7kJSoRYWASxyB3Fjt3qbpQD9w+xD7go+H91KKSq2ew/ErAyiganr3ciGSX8ygeC89UJgnwFRaYIFsJKZcjuuLOmW6zVccNDry+1IuGpzRrQnSyYrMRPM52j5t/FLjUZbmzBQwcG9gCGYewKyc4xpxiRn9Oh8iW/ZGYy5Jos8VEHeLMiakZp6lmJH5mQnACZZAF3MkB8eNp9syC376V+PNivxig9sy0o9vOmIB2F3Alepc3WLlgHuJvedBT3TGntmUR+2Y/k+kVAr6zdfQ13qbc586gTeSY4zV3AUzFLzXdcDhfu35aTWuaYuQ5Wx0ohzYMVGI1NakesNLy+yGibiUYV4G96FKILxNlWl5BHtKg2MSFry8/YAYtMXlKnl0MVGNLdJFMWMZbg/3crcJN2Fd7x5fGmEbaPyceMghwq+5zrIsW4dV+jRDxn/NHDsNZaB367CEVItlVxr9W/BDMPGCm4Et2Yd7o/SP11s5kmFLVHysJXg7NpbbMOoOTV0j9kWh9H6NXmDeKevt50lMvJC0O7HVeOwileuB8LoPHROoThWGFofHBQm9sxtdLeveCC7CUOh8es4wbTpoLewmMA39g/TCIsJ0VZakzNokx0ixuGe1S1WCTnHMFFwHEfJhB5rFnyxie1qyng8EKxGdP3xGWFF0GJzR0y+Uu0jDSZfyp9yW3V2f4Bd2TuI9TjpQJRlTab5BM2i5UJpw2dnURzg6JB7KDSFmvhRJI3E+uInrCTo8sEZ+VFWtmDRe1T30A/Hb3wphTAWfjzD/dMyKOxrLKT4DQvhWjWyhj/DcAZif89DSH3JgTXLhQa37T+VgdOlNTE4qTk5nC2wuMmKGHBlRMFeyU+/OURbGELSzXxRzrEqQt+2jR/YpRk+d+FCWwtkn6rrn14mDlJTY+Nn6ZjJFbSPxCCY12IPCdu9+nfPybofzZO6mTM8Y/hxp/2ErtdWiEXq+dBqNVTjgZrkKHL4FaFvk4c0U6kpHG2g2tDhaXPGMdv2A1DQ+9Go50JAopZyG/7GzbqEY91L8hdk+2Ve+UWzCW7hbJaYPph6pIZQ90s//xlWqs6dmOZDx2nf5TVj1yzr9znA0N7zaeIfgg8ixmokP7xFQyV5EwnXJUd2tarQw95/Nq+Fbh30UFLN9dF9VUemV+HahuojGd2vUb83AWWnD1Is5BKjPHbXMdvI3VbhGrVeTkhARinGDomlqFTLW1QUmL7+mis/Y1tL1f9ueqlmXN6k7em7fYlFWpMo4tfEP7tBtvkFpPQBCL0/HHTGAOSOgMYCK0riWi8em4L+wT8nsDvAP1+QOMVTmEiGm2thT+yPBbdUEluMFs2mE/PTykUcwO7KCPKJ2HAgK3CH+FDUIOjOboQarke77vhWKkfUllfjQDfUXZS6nzQpoleX19Ek0o9CAAwI43/qpdVarukzd9HwrwktMCm7+w6x9haW5EW3eZXI/1Wt3Fx9ZNvOMfECzb5K3RtxVe2fXvNlDlYdST5vAWibMspPGbPsP5FHg1vhXoslWkxrxQTf4vlRo2Fzimjgzb1B3JYMXZhHdhHIfhHM/nL8kSqmyGUTZJM0kwAk1wl9dXVxLVLZhawMY1A+mI35mpoHC4U8FQKaB8pwYky4Q7pCvPmD42lCw23L02ggt1uRmuIi0yvj1xwSWzxwK90rVvPec3N4Id4WMYZZqCmh96zx4I/d0/ExsWSO9YRiyaEwQopdWIGTgoPine9ZhvXAez4K5h3L46CBl/RxyytE2FLvJLO6RaBNjXmO38DonFYSe0DPZpclhSOsiao/YCi9x2ldMuARtknllfOZEpgwUswVmk/iNL5kWBt1I3JUyJtRLLyjzkhisAPdFDj4WRmZwfd3os5rR6F9PXs0lcTBNHrGSOfvpQyXpD3B7ALvUtCGjrtIVU6r8AqROFwv1K1nr6VD5UY/iONQjyEIO0GQcn4etSSQX/WUQTD22L2DwTaG4Jd+AO8GeYyGTZRShu9WLMunzEmELwUspYdwP9J8deIgtnu1RCyF/kPXoh6N95xSmyeijps9iLriYQHLhnPqMViLx4HbrArNrb5laDY7o9CIH9UW+cMdJ8/wvn6VwbMxM3vv3esMSOaonQCXlReV6qIquetOjFX/wvGzNlXoX/E6BiSVfHQqbzg3xiHMNDxohfr9Zs7OVPm+5T6pl762moucUWKQp6AENCm0+s3syTYk+vAqEXNTArs7SBGMZzZudD/bH2ZhTolXuj3m98J7m+0dQ9GnzmOjyXCdK/Ojr/+nrXGGFT++jzWSuqP1opB7HX/TBNsVoNHLiDxGmFjhFdzh4cW82fS4C4vgslKVEg4gg+Pt7Rvqo/XctGjIB0RisBwJsnd7wJjLaJYBiGt7lgWPFm9UE5cQizz9Pyur3FD7u3ueC+Pesw6PU1JVkIxdz8Z33ObRkFuYvEQ67937oeOzlU7dFqbN/v4MQyS/HCLsXEqUTw3vw0RdqufKZQmzO0JezXKDdjd5IaK51uJilP0nwlnDTtW62rk8ei3GLRVzNjWdoLD/jwEgQ7yITs290EEiM7ikHjTxgRNPZ3y8tK9IeXW6l7C6iaepak55KLCPhEaAYSOpJ5dL5B3QdgOFx2QQpe07SnE1hl1Uy23zBjJRC5dQrymRr84IQz42PeUWCzzV1gUjbaaBbhlHbtLoEZpm9BEyR4KTp9MkE1yoMGckeDilO8XXzEIsxxBiqLhuIs0tiaqNny7pMBNj0emgq2HqAG58FNHuTUKn6+2/+b/fN6DHDd0OWIEO38DxkcXNYuizRl/PrjyKaLjFAW2I6G4aYxN5YeUX1X1sjS4yL2yiizd1Cfnq+v9SeKUCyTaHx+PQZ0BUL1oR9itM6IW9K7ezkZB2T0boNVqCkY21oODjaiNCH45JxOoSnjjmBg9GQZa5I53ebqXnsNT5/I0zj1BcSEvSjrvtpAGbbP4MegiQ2BAE5sAyWHdAZ+D9LISQAUYUWp9admog7PX372o2JC6uQTWbe1dm6bL+KeFcbMLMzwZ5L1UvlPwRk1/e/9vYTiAB6+XZsVXmcv7dNp0xf0BAfRREkZ5/U57ZnsgO482YGcpxhWKA8ppad+wL7Y7tCbjGAQB8Ib57sIOh6WrqANt3x0gY0cypQ1uQ1l0B0rGnW30Ink3H8v90mgzZe/9d9ub16tcRRo414KePaLK+FUkv+9GKvq1UPFvYnLe3el3AOR3Q743cAS3QMI5IpRQMMIime76EfCoywEoD76I64SYGDW83dDOoUp4h2x1lMZarfm9PvzYq7Ko7OGf57+CwFDDATeRrgyvzb4UlwUfBTWbP6ACuobJY0bN7B6d6EouF/PP6AOTmaaj7z1rvKtFA/P5hdZtirE8BP7FsgabCtOBadQOHbgP96nkhEZysa6Bs+j2SHKOOqHdpjtjjZ9vI9t+ntb9eVJ8l3oVCMlIlKvWRS8qVOUzez/qQBroub+hdFxLE1tqvDXx1DM1arux6l9tv6pgsQY4tCeNpT6h1StJZaUEA54aFbq/P4KybQ5hCCmAVhqLWMh7eclihPxJyCtnwBs6wDvasTKdJqP/2CLtUZD8KTKNWejXqbfXu8h1V5s9PXxEoh7UzZjpi0vtuPJkpyQlHTwWg17zUTP4aaAOvSDn9EmotmCMBu2BqLlYxX1N3u9I2HKOBKe7boPMYng7frVm0Ws4gaH3g9/mjSka9Y7a1fp25QRaFJVL7ieIh3KV3eOBC+H6Bd0hshMjEsbyBMIigjnn76ubkA4YBKgdhcDdwUsScIu97B+FRKElpr7tb8UCfOYX9H2d2rOR7CdiMHf7UMeijMrVVKY9foEkcgmfoJHDlygXY1E3hJL2Qy+fCJOu9tRwuADdhwE0gUYA7AimJqqoN5la1vAaQDlyzMmjvnVHlO6L3iN6x469CaqnZtMU/loH+Tm27xiJkBuIWBPwqUbX/51g2wK1r7mgYtXnGKz42n7J/kyTsrIh0e0k1xVf0ah9bLIUu7Qx5JpPQIc9b3Rqo9E9WQsGUwnIMf5h568gJ1s3soyom5w0f1a6UhP8CehNy+rI40SxtpoWB6N8WJlKymlis3kvGtnFrqqRBiVqHISzv8krn+V2P3jQK8CqVnW+nbQcH9BvVfgEMwTxxA8ULayXSoefI0ZPyJ15SDlJSC3g2aMBD0jynTh/gkAc3bRn2K0ED2Rh7md5HNsOLY/ugPzq2qzPbh2dRDphKmrMjDgmhoKoCzoaBZgHi8KYeH1NSZ5npPxcRMD6f4ykw5qNBbcWXDG3aTSledncdVOOOuL1C5sSAdXyHoJRi0+oHh8N9ub6lLnXI8Odx2eEKC1nk7uSehX3jEW7cqVlnlvY3gMyOcJE4JFbQF07ivWO2dhMquOaWFQdnTypd2Nq7vHk8UrbUlILVC+he/HPf7G/Ss6wQtiESWrT2AfFgKjM0XBaKY/JjETB6gDE6TkjkD5EH4rpd6Z+Eob7GY2Nz6j08yD/Q8Zw8ZXh5iQQGmSzAQc1ezXWXv/qSuyq7T3Iu3Xx9Jf5QzvHDGdJKT9HB18P2q0xIs6EvXbMroVlrF7Thro9FxeIbetbJXixCN1Tq0rtiXLF+xp13gpL817J7sDchKi7gMtQU/2WdHT0X9ndzLs/l54YseKHwmZaTYTrZIpKXuime+C2NZO7LAiuZTQY517mf8nmoPrTXoit9YChUi2UE3U7k/ebLC4nN/x7J3642KzlVn2qOQfLpKoZmE4AK73E+RQXgIuIHlHZnS8h8S6EQTl9+V25oUkrZbHsLHySXMwIrzpMj43yRJzQ39QxgH60K8dhp0mFOZ7wx02dDQQdR4rifQCceG5dS/Q/2A8f01ykGQKfYjkxFh79SDwCe0P0yUwbNBu14eR/28xgL8cEqk2SfGCOyPT4gz+ZaSZF9ijtUczqpZNqnRDmTPY4RxIBhrVD4ck4CoDPqVjgEIcQ1hvmLN6VZvpj3P7cEHqUIeCV7ggK2kSTAlwM8/AsckDpDC0/r4H/DyjHLNsMzz+uF6x3xggFJoOD8N10lz59ImjTjMlQW/gQbcTom3GSoQn+62cZTHwekx+lxilua9pJYMVq6Ugw9jEgqKQn/MITd/S+WVzZvv+H6oZDBNgiGV6nxANPqMC8PxW1UhlXwF6EeYOkvReXvRYNYsx3l35QEBGwmXGf+GkUVYo1M5/VEYMyz0QQbasabSwP17BYtSx5jbNuw6FWhTIWsh35Qf+ERWTwraFqTFsyXpHR8W41lrk1YDHBn+G3//RZ4m20auwZFjnau6/jSga8xB1eMcPu6+iY5taO/TqehliXcWyC/MxEeeH4Uibzm8AKx99mw9rXN/JhyXBY76SgkvxksaOx+ErvuTC4TkuMmjjONS4zc55CVJNMxPeO8Bhc+vScaFFNEFMpzSwRB7M1ofk2ejLBsvSAI/oacgtOjDLKpSXxNa4A6cZGYYtrKG8aiLtDzr3+benIKtCla2jAtwwrDAvQY4tDtgb1qGcX96GSkTDfha0nWTpwfItx0mdmUrBgoHuaubm7SCGV6Umw5vnArMT1cl/QytpoInQ+Sfa7dVLtkbaPYUBxLfrfVhJybJRWlG5BEGHckxDZalArCEu6jdKFvPMJx6jTIi+njC/ixcb1t+2yBcwcwMVXKLo0rPiYQFCXRKOljnSJqLtS58WBFTl06mwfCypMnpwQ5b7L1Vi7hFiVZb8wA0ij8puuWTurl9NjQXAi5rbyUXN4lsywxw7gjA6deWyMwXkTnvMoqseVgK8ZgdbFvfyP+O5/Sb/6zk6l0DwThral6hoJXJa6scAYdvYLoPMurcsl0d6RUh1soJ542hdbiOxUR2K2nqc9IOULlsRn9GuHO7WIMhgpTdugwEecjxOPt16SC0pLsCb71XToo25daS/nl9FAlB6oMHocMVwRCrRmqOm+3OPZnVCyLdk3u86KneKfnJ/sSix+yoz7pqsUImY64n/YuFhujvf0wSrLh0afcwCFgUvBaSWtfHptFXi97uTIu8YycSBHC1zPmSiZvvfBrQI4YYsoW6aTrCgSoFcWZTIc18nSI7hvpWvhnR+YoRMMUftddqO0J3ySfOf9uVjRQo7a8E2+3dtayI/+gX/w3fVjELKV3rizkm3mVQLJczTv9Kd1LZt3KNJ5sYvFblMgGMm/qQK6EF1eeAx7DzKqoapVTUKsGvXks+HFfUS5zm9EyWaP/ufJf/AkdTPwa966hq4szVRqJmGRxQBiJBBQcuHKEOGsJyf6Q99p/I7JcVYaXspNAPDa2RN/Vvo5AhBi2MGfiCHvqAUWvhgdJg+VfqdMrpMnpCtRdU2Kzp+VVwmldohskPHHjT9OMcWsREF3jeEHW88VKedNB/7purdTCgxOzzqAbjfX6P0IPtJp5Tw4pj3Awuz6dnDeI6N0LAdwdDLIveE9Zv3a8+YCC1GU/QFCZPQpZoGQ5kaDCVgFQNyf4toxC3haYPZlMu9b9HvzVJj7ucsIVG/s8gCVHXlLfm56q1DxRxA78vc46BgZjxpOsQy5mN1pvUSBt1bmlN4poS4KRWaaVguq7pCxJK0MOLsDS79M/Fit3cJj5hQoDk291jxsCstWp3tLLFe8nq4oisYFMgtWU5BaCi1ZTi+ReZTqpNj7NbZweqdCM5Lqbwt2BRVXA54CKxLdm1ykeZ0fZyrm/tpRCBhOBX+KhfWe5P8CbXSMKcgt8wqc1S9N4UWQU4dMekyb+iLQkBG/+5iuLAAlycjYfeN7n6gkBJTYqQqvMJceW2FBsjNUu8tk2AFTLXiY4eL5pF8sgwA/j57jQLYa4kD14B1VanXVpEgE+1CFu0i3iAsH88gE+H+QKWiX53S6Llsbhf3tnVc3T9kn90IyupKX4qSa9Zd5BEY4oxsDPz6sOv1excrIIj6RIc70FYjA1uAi+s152zmShlq9O2x+U2saHjD0kpmPhYT6aX2+9CEHMbOGPg3koOh64T2egkpZmwoQU88j2QOZujTnVpYUplu51FLdC7BQ22nLAi1pJxCU9byfH0KX41N/yqUX+rXogz5xjWGtAwQioafZOb54X9Zb4dGYzliAyYGGzDqiO3kXHxuzxp5hBgnT3tKGaIITavMplyUNmlOKPS2vNm54C7dQ0xx7GgqnxiTJKjVjfANxSqdQC7AGByFMDRfH7LEPq9YDDi2NrCqcuE1xYM6+9Qbso5yC7fwUEQ+yv5fijP+k69YJ+3kt/cIu8rnMSXUJGdzrBv0F3PONZUrkECB5CETQxGEHQc/Dzh9iT/NE1Gid727ilY2D5bTzngU4Fq8rprofOoS0xNAe/MJptYYJZrRATvMULHE7MN3aic/mVmd6Lq4EPHYAUfsSWyI7luzmYyF53nrP66/x138+kT8AEjBylA5E5AC1C4dfT9jdW4lwtS4W5q687hmjigz+pCQjGvZeSmFwHAdBKkR6cAoHkk1KgQW7sN5lFii2/VSMABq50YOjyxsalDUzAbkvveaONe95kPVtvx49r2Oof6FF/1/pAAc6DvMutRaySVkzpLWJdYAewyHzr8ncUXywwAjLkK6waJJsJej8t9Bl+6ZZfidRE9B5hM/ZwrqU1PgNYFRjrDCUf26HGCy43P4leSMVXmU0uMQmKdBT039V6gbaukmukCU77f+SZfqULSPDg6lPiYWgoKBheXrNSvsWfzLfNJbXx82rBzKseO5Mwe9TuaH0AQGMYosqa8as+JDQGD+XDN/Mf6AJxbJ94NuG5q7r1VAjUoHN9gayEbB4abLMAwkJQyNoX5PFmOTq9QKsXX9eMbvk7rHu9Clc5aZ07lGMDbVRqQAk1h6hZBW0cpCgEMG/4t3p7bEQEbjzUBY4wGjKi8xFP2IE3Y6TSxQz3oUn/MgKaLcHiqklOIirbHomH/r2E3JQDFKJQI/8jxs4fdrMiY8hUBzS1DLGjpgpvV3f7RS5lZWO2wHlIFLxjfT/DxLKpqDUSzi6EZh8CgKxOqp6Ty7UOBDwLmnA+pkehGxlWCKYRxDufCS3cygBwD1dcOmXfNOUVKR3vbqiAg0I4CSjpcDqfmex2vAy/yhQRkpEWMd7lUmW0d9tK6THz61U8w+DHPhasxGs9Yipqf1YeSopdTkQIAAAAAAAAAAA;" vertex="1" parent="1">
          <mxGeometry width="418" height="500" as="geometry" />
        </mxCell>
        <mxCell id="4uxi48dZsm-Q4CyYIqbk-41" value="" style="shape=image;verticalLabelPosition=bottom;labelBackgroundColor=default;verticalAlign=top;aspect=fixed;imageAspect=0;image=data:image/webp,UklGRoRzAABXRUJQVlA4IHhzAADwmQGdASqiAfQBPm0ylEckIyIhJ/OcKIANiWdu/HyZyOQEq6KWQY3jmBehZyfwvIU/v3R49VH8/6Et9S8Rvz39d/uHgP+m+97Gb+gshH7F/Bs+3Yv+7/5XoF4vddeAP7C+eVNE+edQX80PXjv9KBH6f/ZD3kv/Py6/xf/m9hX9sDWpO4R0s//iQrp4H/4kK6eB/+JCo+bg2Qc0qlw8BLE516YdHCf/iQrp4H/4kK6eB/7KervfRPD3/S2xODo5jh0zB3HIE0QsbHdC4NjfiHH0PIS6goLqkpZq+oIJzGxIV08D/8SFSI6Sdjb7j6bIS7hxKbYE5puVETrJ6/nDT1e3jBvOHAK+lXmwrvFfFuF5NI8v+7ZCW6UqqraQ5uSuXJDC+6IX6vgNTqcl2jvJDqvWNR6rcBVGTCp00cLx/nfxIV08DqcsagZFsT2cmwknyQ3jMOHcVDUakluawOgRLu1vs41jr5oX3cq7eEyGzRyFMJws+oLLfJCD2FDrf2mF6Ro8jPszxP580bIMaayyNChLNKLNlmJeTGIMaMTmNNS1GrG54H/4fSxS7WKophOXg2gKeze72HkC6sxtfPiw/0W206eC7ZazX49U/gEQ+IuFgW12iMswa4u0W5SiF9X01k4gs6bfaHjTNY3N2d/50GJuODd3pqxRjB3QPGiv8/I5FvcmNaLCPYNdwvx4BFFpmf/w+p23h2Uvk3PQR+0130zIOJFuUy9geoiIHko0x3nZ0wc6gvok05vGRNlSD0Qg9Lx8maB9cMIs4dNx5iWlMJBqHLtN1HyEg32TD1+8wK3JLvKuct21oBcI360fYQXFfQrjyHmJwHI1j07iSuUvXCMM3Kywm1Itf6dXaYqeJu991W2sTngqgqfVWuX8f2AXB9y6AVd9BMJBVufB2SIu+iaqG8s14hdHFeuMKwI2CCa190e9/Q2StN1UtUbj7i4GZAWQ0P2ty+hUf3KVYYJnZnlojb7SOdo1KSdphhgBwss//U2RtRVwJOOWUkScvhTzlPTfjzHb5ze0h4sVs7TcYST4EF3XBiiw07HtriAAmF5XfP+FHlVm4NMbcM3gwup8ss3Zk7ftxBbfG1SMzsJQPwQSwYzVL3lGAtHvxTqSFizqNmOSaq/IlbXoAVYuN0PP8efSMbEfcX/DNMc8jGbcEBBAW4XbKHJh73qBJmtiDuoeRbduzjsSc41RU1cZaFZXaQAz1/jiwTgWsBtGZOwfcd+5Uv7Q218+0KwuDrK0PG8DRBhKXmdcTxVFi3z6ofhfG6AMnbzHauf/w+lnuPNI3nkmhMj6SnEj8J1t38vnWJ4bc3lcDlu4jJ/47+6CIrmdEsNuYK8YSDhVDzOiip+G2VR1+0VClex+Q25quXOvpltxzye95AqhgJLYV79M9FXX0yadn2jEKU65fM7OXMEGfHsac/gZWLhnYTmJxgQmQBTyShmxLgrOOwMZQz3wRkUtEcRsqNTBeUdyG0QWNzh5Jlj9W/O65UW+XSTvsGeH0cbx//aUWVPO5xLhY/cqqIxwpeTdmtxRKfDdyemLjUhPmj/sPLxVgnlE7Qdhm4FHAuQ85gN1QNr3fxn4r1vNTM59ifL2H4a17sgufPP/4dbIF9p3jxXK6e0hyHAmTNmqonmeV7MiByk2XL/2OVwmav4A95DSovuOlq2fWviNBy1WrRHEsO+Y8VIB0563Ee6oRI/tQB3GOHZJ5blplfeKKVqjXQnjZvaH8dz2ytRVOMAvTs/8FJXl6UFdc//h0C1ukT+M1eP0BdfmX4fdlektU9gDTskDkTvWxHN3FpBIuHykCu12YhUbbkDokqj/EiyludX6xb8z4dTN5jB4YvAFr+rKteYyRvh2jJp5VYRf5vtUtdqV7e5fNAMLfvA8nNN+i/kXSpg24TI/6cYW6xP7jTb26KPZXofenzv5gdqFcUX1HmOcbINFb0/NOI7aBNTEAo/PS+2a1RnjBXL8f+jS4SeWhiXZUmw9qBkkoA7k+f8sd7PjGRYpP6VwOdZw+R8XWXFNKBsDVDbMpPdLvQYhYuHghMDPR3AinQSPaFHEO/h9LPdyihiM1KkCdjPN20jrCWH8eDeuHTQXAQwKQgZtL48si95tuuRsmqnp8lL8OBKG/E5V1afly4+BkwTuaeekOIGCLkZRPk56DbMIb48hFyqj3pUCpMgWfpj43uU2GifSALChAMpH6rqUoss78RATjhmPnNdBckyFkThh1aH+u3XElyCMv606v3dfIsSJPzfZo2yFRikN7jkht4zTVl3QhebDKByvcJgA2PvncE0aBGy1+JIDmM2tq02g3+ZRNJTC78HeiE0x4xouoO1rDVAoPuZA2tcklea4u68tkLFJ/dzenTZez5iNdnGYf8La2pZajuuisMMcxvTrX5NQLaVql3vOYErp69ambN/j6zkhnz9JUE5xi0f9RwgEtDZzeoBAR9XcraGDnV9eeJ6RwMPbDAmKVdAVmYSwLs0roDwGhz0OvxdW41yIT17iV+b2XiaqRPMYHx50K6qn8NIfbkY2P0FXQpaWyJeu4WgmaDQrvZGLxi/OjX/uybAbSebofnvvBQI29TqxRruw4idMtaaWHLd/7rW0UK23npQfIgCmRWosEjBZF+wIYXrZqk4fqECrp6XjCYxt489vOq1nWvXnwInNd+6+EX2Tgl2xdanRQHawB2ucq9GFDEBQ+tJKEvidlyDU319fht3DVTEdoYkOGKvwrCIAZELUj37Zc8WVV5/WkY7K0vKKjABmWFibWJnF31ufVArMS/mNvte9uu7Tnvh7xVlBUak4cW1wwTj+QUmJqyQ5RhfcOwzh67WEmd2HyZYgx+G255Z5wF/w+DDq5wGa5Mb8+1uocH/R799r7KTIr9zYB2Vg4i19bsFgK7acfAUZvMxBZgxaPlmgGWlmiHMRuoyvuWtn9Vl+VrSfDjkj9AO2Zn8AJXaBUupRfP6+WC8gZpaXU/SfqyeCRam8DE9HmRT7R+UZHgwdnPboNQvLMVpTgTQRTLAZqXX5LQqhJxGx8tiALHa3E7sGZWrI6x/ozuh73r3clYE0Zw3/7ve/NZ0LidfgKPpO+vPHHEPAssJryoHWZxa3CkpkL3t+p7vnmRnwezCFV1lZccSLSqNebkVW0xCLkoI9rK7CjrXy9BF4KvQ3V5VH2MN+ZiAKqDirCU67fommJAumPQNevLCedgTEJvLVqfQnJjA/37dCrg2HLuOkMSwtHJ8d08X+Vr25ZC6MHUwMUgOzNi23B2f1Le/ZpjOYnKp5h9gp5oy8v2dLS4Ak2wP4d/7dH8ojqTfnQAx1fjcegyEPLDkMYeahi6gv/tdgAIBNj/w+wkuFGNs+Brlav0xYV+jVBrcsWiDOMCbxPiLo6+2jAnbjjKe276JfS4OwLofHgbU8q62bUmcuoCs3vqUvaE8Rzwm/pj98i7r+RysQWrXqWuQkDZxpYNhfQsaRq9VEjPQRdY4jtIq2NdGW3vZYh4W0Fsdm67txPj6K/wlj/UFQwWX+MIsuOU+5Gb1IivUMmZRsag51AhQLfN5eB0cYy8wY1aOorWPk6mQlj8wdenLVulMKxWheHbxdD3WYgj8snL/orRTer/fhQmdPjkXL/uY4vHvEN91hC9A7pRM1basnzMafTcAuGqG4iRZLW5L06rLI6Hpmiipy2V5irXMLnkFieQ8A0N9XvM4bhHqO3tYZN/Dl9wse05uLsv9dn+j0ZVoo41XGbYZ77XCoDfYsonA+lo8DYwT6NKBEzPB/Zz6VbfOAnr7sYzvkkYenZUxYeSunUcXG5+cvOl5dMBxPr5LcD9bbDcE3flyuIkjoOMfON8qaUK0k9bEW228U/Y7BO+MZAXza4d2aU9uKgA7vpBRuL116sSvewDnV9ACib7zIlt3Gen7skvRFuUPLmu7AfYxNa/t9NuYWZ6mbV68SuBda2WF4F2M/1jaf1M2ycTGmx66lhIQjxXhhxQZ6Uu6V/vHIBXKfy9UG+w647mzsiBhcVi/5OJErjN2zJ7jKJ+g9gUS3mwshRQnPSMbYRMhWN2qMdyDrJ/b/Jm2rpOTie9wvKGAoLNhNq63ogKyV8Oid/MyQMBk8cwAKtCyZUpc5QItCl7i3uO4svlM+m+D+GHxz19H9Kj/hxSWrD3TkzRLXPaY46I6acVgpM1oXu7QVpifSgVFnUvsAwI6R7IRFfZ6sUO4qbcLuj5BbtGnF3/O9MyG3uD1Xjo5qe3+jpktl6p9pGOtruXvt0Wi5e6W6NbeZx0g4sHL5C1z4p14tpxNbodfa4pesYkBKoJGPBq+tQTtQJYzLYSfpJQ8zA4j2rYheg4bGVhSBuSokY2+2V05gCE8yG4ownSFCdD/S3rROY2JCungf/iQrp4H/4kK6bQAA/v/foAAACO7mA37nr56yhqDrYK9tUeaBikL+PY4sFI+KLYAL5aPru3AWUoOcZt5BONI9trJDDjofzqxkZBduVoYR3BGStU17qqFwvO2bzOlU3IE/W+B564nmZC9q3XJ/7EYJFgn8g+djH4fnjD95MkEEptCAEYrLDK1hnClPtw+ZVNp2XQxoUtshFcNiO6gvEefqrfecxtd5auAACn3aFTfF5we+BWFYjujuzh28pIasMgBXrlckc3aRFWxwnbi2aaILkZdVrSNG4HtZyQ+TPW+2rqWkIv1DAyFwt1JKRtMm6D/vf9U7cfj3vo/HmJHd9u6wrWjtIDi0pxrmXUF4ORkxzI/QyO+tOOXj4crsD8qq501QtsnfAjFMb17yqokAtZAG2dzJm5gsidYf1TaupXZj7/vIXnnUe6xRLX7b0yLxw0NQ5kuyOwXYD/rBzh8effhR8IOIL5919YDSfpitynrf5xDZK1CVHHkdGNWvmhhPi3Y90vDuxoi9UODaAe3tTIVt9G6UaxKUgbml+ObY6kOpl5WoFUEq/1DH+mdr6yHS+p15hPS6a/92DwNfhZMVcZWFg0jst89u5nkDLb6LcmLm+r/2axyutAblqijLZYAy2Td6H9rfFrmDJoEpVi+nngsGuEIJLeWudNSn2gVsOuv3ZQDWx/Lo4sljx1Hm+j+PA8Ab6y+JUNjJhspyUvRleqVOP9AAuhvlE41R1GrIppxClxPtG+5HOQcHrQVbuihdwLecXbwXf0P8AyOxyU1voRM1jiRV6zG7ojNwRDIwfCfAoFNPRWn6tbHpQkXcHjJzwK48df4GcQanGoR7Jxckl/ObkGHWvLLgEb/XqMkWhVnoxDseKc69pBQec6pabBGS2RzaqH/naSjY687987auLttJgPYt75XN86x3FHYzxZ5G9E37vrlaiLJ8JEt5H+edKgFxtp3IXfAvCHunpTb8wrY/qUzOm8YImqiur6Ref8m+lGfQw9oz0H457pCIZpz+vgWJVAuX7+nh/V+/4TNXit30J8nCaabRaeOKc0mj0mjJbWwEd7dxMaTJBlhwIRc0Gmp69CICwJgZtqcZ516VmIrmdABVX6fFJV+JR3t3lTvqApnpDgsKnAIIGeqo0pk3gD6ow9plNTE3Tr2MKNwJviMLcPUAqZhlzhBlwdDW7nVlfWUbX39crOYenUsuw4+uogA1wCP2oeRJ4uvhW35Il2om+Kz+u5e1JxoNRG9ck5L/olR9vSq79eNdbsAo4m9f53+wC8MUX5+2tWnwqGT7pbFH7qOgRBmjjoNiW3zdcexacZlEjljkX66RrJXmyJzw3PD4kUrBlpzwBalcZVAWWBaXzWTsPsfK4n+p6FFK58Xud2nTEqGsOOG+aTuQgN4gj5x1KGYPjFxfXBRHyru7KUSolkVvcHGUWoOj4ZX42QtdnuiPsY6HMB2aR7SxHU/E6rd5ptZHxIispWhgS0alXVTSazLVZNYJvrrHzbzTWQjruWxI+Rabd5of5Zc87T/Zr3Zg8Qf988lof1CUhQfGW65/AX+isQ7ZbJZtNzxufk6Y9JxWOq/wfCuRL0fzr0wNWEpUcGtSjmQAbfPvB/cKs4lXVyxZ7aBxNEXVEHawPl1D4vgJqNaOujgk/Az4rsaW6AMAPkzu74kzuE2iNPEaSIl0M5M05jHkZmCbz1YXiBVfL45EuGIEQMFeSNq8MjUbWmL2e6SVG/jfuMr0n2PSLJA3JS5dWB8EAiJoMGTeHKAnJOwmCMMLRwmh28kJWkuTHrZ8i94athm6lst0SRCtfRGlDHuDzELnBIZNoOMFdF2RcGy8EaAZrNJTaBYZ+UIyBOJYQbuxWDn7C6iDEiOF7hNYxBzWeSSJoTJVLdbxUSiHtCiqRiCyxjYxbEpoXLfUWBeu55s2ulNmSNyn/pLvW1K9ukTmTpZNmIzZgOKERrJNDEfVJdTdEZzGEbER5nuYq0BfHbCM9U98CeKWHmgWYnhH3Nj11mR71ASbJKncfP9/XYzh1liCRjNYr93EpsTumFlfw/PDtDzdVl3atZWOOoWHaftBE4sRD0NMl8c0Ln4NY3gsfz2jspkMrbD9BZtZPAKJkdAY4cZobLYhnJuGpSYe1vx6QlRuxVXxG5TemMbiTVs1Gchc4ZTerHtc0gDTwrmr7nk45vabctpAI9CxrUjY4IqaKUxbjDGNosbBaFiawy2Tf+tktIpYGhkHwGeByc+upg/RxWw1QkGqFpAbHkEp/t0okwTHMN4xTVNWWG0aWS6wniM36iZyOkNWoRXX/pQ4KUpO2P3KlrVX6PVK9c1rR8KcbVl7TrDy9RqxbXBqNsURS1YwRZm1DoDNbE/s/EiK1kOF3iI9tyBZUkm6TYXUJv45es3OcjoSOg0pI3BcxreIHn1id8wNkqhn8bRpz/hXZ7eQJIRaU2u4hFFKsG1uAzSCfhtTdkfVZBVAxbpqnSvrm8JxDBpTSeLhTZ1MbrkrAGa3kYE8m+keumHvBzQP2KMkOfCZAsmpyl73QsHJmCjTHLAg6G4h1UMUNzXfy01ZK53Cie8PQBUNLO/10+FN/QI81yQmNSQD7LOpK4xls3pbaXHVo8wuzvX4GCwBPFjhvfeRP5o84c/lO4WvJi+otbrTSMcM10lO654SvC7K9pfhx9mUUTvXlgzvw3xL28GooafmrgmcAKz3JQtp7tocxneu2uGhKrrpr+U4NyXXwliePYatISX74NtT1/7BOm+IdyslKXUy2ebW5k1+GaL2kuxTr8ZNlpMmouZPUPFfj78WfSY5b6FQ7bZYLTbxl7hD21RvMkuxIMAfrRCZSCCV8fXcPTooVu+kjzgiFxOXxCc35UqNw9M97iiPYEOey+CeH9GEYfU3w4Yv2/yQ3taPdIwJw5zcrfiRxlbl4fILkN+L1edzlms1dl1/MmQCRokeQ+ukhiL4h4kxvDvmVYEaPRVz6N+Usn01k9GkG9VXy+qLipNHi11nh65XylxBF7Om6HXFlvs4u7ZPHWjX1BoMCtrt71EEZx8B+CI7nGlq2bICYSOBk+B5zXbw6d5PCtMRfX5HlDclldXGcObgJDl6Xw2Bqoj57xQeU9UKQrSsvjh5lSzIa6oK2+TKzOhnLtQY6QNIOsE7dypRv6Dd2h0dqCNaSrPa2f0d9xlCz3jmbOvEyVnoIJI3FjmTeDI31JQfMVmU1JIdJxrNTyqPrLpASiKP69WWEWudrn8+ME9D6fCGfq9jhbp2Ujo6xyJh+plGzAFFRJ11gqJX/1QS0hMQ1rReGDAr2d9Iq1p8hzNESU3pht01AJLe3A0I6NsG/kPILjoeflJDiJg1L8nKT4XNzoiRKaImLarh0mHtc34tzUBlI5V2wsiqqhOnITOfq1QwOfooVw0e6fRzEJYLyi0dyhv9mJV3FIZTmvXtbi5Yqs/oKlaOcJsaTZX592uLmTu4b91DpUhCxUHGlB4Lz1SkmZ27PTdGQJ8H5nMhcN2msXR2bWiCh9iDL8lcsKjxPcZuLKZmydtH2Bd2lkpgufm5QovGJT37BQsZ/EBf0XE/OosCPxGaGpfI5lHYCDnSmH6H6cmYUaRflG5UFxwx4hxZMlIUO9oocjShPkx+BUgYT/FgDZOUmlW+kU1vyxtFtzzAEW0lHhY5XeOouLfYXeHt35dT2E28LMOxk5kI2S6QqNMkrsxXpQx/gCXmA1bMya+l9WW3oo9L1BKvh3syAsTulWftG4A5EVFHoH0knnxc8Fs3Mx4UdBvFqvzahpiK9QEj7to7Ef2DDRJa/SrYI5l2L9JYyJgj9a+cdn+YCZikJYeFMuqDiXHmv4RHfAq8eJB+WMsCAAR0VX1Pq6icfhuFbqobmWNbJh/yVptlgddEavrfT/knoDLcyxqul5Pa+7nWq2Ya9sAcXGOsP/YF8hMYW6Ro3miE6PbRUgER3VPqJdvmLUzhptOPAPeSvneiNYLWT1ngbjyvwrJh7l7OwUWNDwqdo2e/e0Ax1ykwhuy3YZpDGMf0xUGgQ/WN/5mtx7TErjwcd/wj89/mSoyLm/20+3hgMuPPPXamsXc0W7lP1t0RcmLL8D6Cdl+//4OCJBTOZh9CF+QIZMsGJk8l6T4a763jiT1B2tUqKj9CagTXZJwdgpr/2+wExBX1ccYGm8hJSQgOCllngystuI1DQL+hKsjRxCv00NP8r1pL+etbOC8GzfdSsOW8DsEKSBuWYBDmvIP4DmWl/m4nsOXlMzRgXmGgujpXT8DDUWQfsHScrsIlIJidPyrimqrOlHdjpxYUaxrN2BS5tH3CQsIaeIRA5Nsh584c4hFzy9l8P1wITCoy58IVxUUk2YtORycBT9SOOBGH1DveiYOLgjOfXRd3eyQBLB1fpaUF5p9QaH3w3rZdp1O9yYwxhNn/yvQtpmCGgJnEydaFEoN5hTkb0Qt/hSLhnvf54l9BNSTgn6yGCcmOpD+DT+19Iajvv+unvtc26Yewh2xuaNZhipmsJ68O6hpugyIPhqgNWQ1vV7t5kUZyXfoBTZpEsBVzgj97qhB1t/CXHcMc1SN5Go3ONEiI5lGuAYFLeSz1tyNp0CU28VtZ65g0XzSqC6P3axtwxOMLTFgEv/GGyXdf3XKZkD1EYCrSlZItvdqRa5eTk3ACM4MA4U1yw08wUEK40T231qyTyjXocgaSX3NjReUWQjNClD1ergnNgzknTPiUjILBJIT4BeoJIN7J2wEFXO6Zo596Hzzw9xWpOTb5Ga1Yt4m0UkgrNXfS9niL+owZUf2PR3lXy14oq3hqZ3uSTIE8BORdoRzkOAjFiy5GcJCLrphmFkX1gh2TpClSYiBH40orb3G7YStTAB8LG5l34ei0bAARR63qHirWkLhd6WN2/RWrAg5PIom0bLiNA+ysbaE2hd7ZalqnhPGeUYHLId3dgib0y857KgTYSwwrpy2BOFHTG3uLviAa70bA1Qm2EiWTb+TgJkq3i2Ry5yutyEsQ4wlBcouayBtIRw9V5RLdF9eHfihWzaO+TnN2uSg0jvK+CRuiYpeJ0UcC9R74vCtryIK58jkqdZpkjxhnVykDCWvZeyahkVOodQtMB32ekqDg5j2cA6Ke9+IvoCzLiSclCkNdzzVqtm9exGBkGk4ajkyMe9hfqablCvg4uSm8MWo9suc3LzO/wSXeI/AO28SisjE3u2IidWJZ7S03r58Xnn0yQTYQrV+il829X3eozQQnvjEkYns2dG1RD/tEvLN+OwiO6+yjsix3DRd04e9+4TZpTRaOWjNEtVN/bB96TLlSOrBfVE0nR49hdZj6b/AaEnmoHChN0Zo7+iH2CIxyRe5mcqxRUfE7XWTTN+FWCTR688M0InDUhG6MJHbw3wsfFbeWkjyR4c0DaaZff5wabsL+p7917+VedSP8sD+Hs3UNgLqVm/9D93TKuqfQa4VAQ/0UZ7CcKE2NmcfoPNa3AbQWfVEk/zHzV8xn3ZKIPe7P5n7yp6q8Cz/vz9GajUJb6xJAIVxtlIxoUF9Q2iRG2Yf7kR2hN6EJOSJAgJYRpiAR1iH0az+x79CYJ4Mfa7xstADaNLVajWIQyOa8aNDlfiunwKqWRRmMNPDRRpRNh818kcAxKTkrDEo99+0lkhWZws++khRQEu2Twy8Lm0+0BJIpeqjXggig9AsFUOBzjI6ZTlw2EQSvXwCswnT54gs4hYKZLmQPEd7sVjcEDDyULFh9//vYlrsNPQLy/5Qw4i7k4dNlQCEdTbYC6DE4fI/c0xvaoK8wMP9ntF4w/DMFMZ2Yd6FdA9pUUrvOkcFzevuROWUG/IozdqqHRfu2suSd5stiZHO7y0pU18yVnNq33ZvwBkbEScLubTEd07F1D5OYKx+O4+t9d0tjwk1y12XAf/smMP0t5zAEjhEOX1IyHXJUNSQACrFMto5N7/YhVaH2ux2MjmsKaNAnLEfmRIM4F4rP06chkDai+H3o6Lk3OAuvGlpCuX5UI0nNlwNx0Zlfn4mEylmhKD23yKNrEyVEO2NRYCQopMumleHDNJoZEO9j4SBT/x5aj7GleCVPR3Fgt11ZdO02+FhSSCrqGrUtvz7YiuBUacnIdh01dVF3LLRw5v38RbNcfss2uFz5/GuPgOl7PQBzPDCbsjy0MoSuR+m7S8o7bbqdVI4LlpEsLEBL1D9O0LV1U+62NE+l11/IYG8SsFvzuP8YO4SQRK2I4tB6UvEDWiVIQq8I4EKrP8PNXCSrfd1Uw7yB+rRyrNefj4Gl3+7ZmUIw04ri9b7JcwyS49260W0uEDATKChliljs8KuRrI+bi4mclDWYIdYetlYyUQINYCSDDj7RcxVVgD5jrvxv/Ep4GRCtmm+Bv5rxLTt0jjqiy+umM5q3Obgfx8tm+PhxSznDV8EhlHzwPscnwTKheqtnvJGY7rJ/1luBjmbJwTDaKPa8e/2+jA50ArB2DJqaff25jMCx7YN6GhkW8UIRBMpJL0xMoQBi59IQe7a+kqF1Vym283HqVX8Dc1OrckWVrY85UTmrSbCdQSWxWCdlknnLk1lf2r9YXAaVuB7XvuA/wkRc6vHAOe1G0JSRJbPnMrqVfEI92lZUZE8XnK6a9sXwmnERakYy44gc0ynfxWdmR7Wr5p6BH9luZgJTQnK3QynFlkzlLpZEmIxTCVWXmV4TbxGRWS4ODMECg6swSp0G8U5+XIB8cB0Bv35+ttZEcWs4JAhAjudLBD7lQW57abXNlvQ4V3V1Mv7QXrEe3MOhG7thjAfKv8iCwxLlbffJnvRj3iciEZVE39Gfb8J9qUQTuNAHfQNROvAVSVen3WunlRQj8pzW0FNpNkPTXd5gnHEW7fC58aUP3SfYcLA36TzVBIYyqfsLdUgqhLGRBxR7X5lrEmIwi8W+jTVAZL79anwPqvp3Qhpc+I3JKVg+jqf32TgxO9v/CrAq1xFKviDCugzZxa7pRLqQy29rC4rLGHsb+RCdf0s7eyetimtd4elsQXxm7mToDgxU/luhukeXYAJkffs3FKbCc5UfQLOSxCboIEUoi4P4jYJzoeN/EAxwlulrr8VVdIbyskBjR922q/mN75O9z9g6qNN94Edtq496T4/35NzW/g+bukySQEj+VkIbvvhea3ClWQFBV87yRyr3PkGBwWWoT1ZQm6rucH5d7zp5hFgUXJVdgUQWsYdTqX7aSCFDGCchdCsNuWr0IsvsQvFx13iVEs86poxPmzLzpROFxguk/9/+A713uzYh5KEY6Q8urO4J3baFponYKNhrW2Ct3EXv0Z9p8knB6UAp5IJIKekVb/NOSvQjFa5JW9pa3lzYiHp4YdZV1gNfaWkNrZvcvV5+zEiygHdO3iUBWmeMqQIYZsvih6TbgEyTYhmHHBfsLIwtROIBdlkCABqej/x5+NfCqf5/ziatNkw1JIJXD1lBxTI+287eEqOoQwjU3Eus1c1Ce1IOk57Oc2QZb44P35WOIV9ovaMq1J8EFYrNICeQG3K8opysmBxedN494gHmNgPaJnuNbe6WIlkWwGTNUDKtmuWhLrJiiAyveE1TF1yc7/A93szvCRhoNnevOb8d73qw4YwK8EzikoqWzt9/zfsbYK08zKYHb3sedPco2QubXLsXQ6f5EWBBgshAFgJhSb/YTYp1pVL3UUqdUFtA2F0qN/BPS0IuCiZFT0lXuytBaOGUyzk4WHeRzfBa/rLhxxaCoIbKeAfB9la71bP2NJXhdn3MYcGLMqFLQJ/TRQ4oT3B9YXttzBkCordL56X7hefl3r4rnkDev72fx1SzcZrHKE2McnwKFLbNMYZABKPNSeYkLRai6m80exelyDER/DhU9na7UlMzA8+XhHTGEYSmXkFyBHHAlDQJiWUrdXpc5uVhb5iC3bD3YiYjxw46dfyHGpmYdFsycj9M3WsgzLzkgjwiMBtmCMr4s2jZ538rvKJe9+v2i/2yRXWITaAp267Dr9GPPfNlnGJ+4iKtv38Gt3AUy6BHFz4G3WufbRveyBU3a7FMcSZkIkGmelNcSQ2e7GeiLBNeUC25DuYBcN9C2OoWjpt4h5xfBIiLtm33EaFrAeAc16mkY0VhbZHIkz7QI1KWkPPYeFjFA3ZVJ7SZEG8+u8qZx0l+f6JCuqftzD5KDHV/qEGH8aV1DynlQSJXhDGDnMCM+yN1/SgUNsvNZSeCTPyRplszCBI9WIZ3siMlN5agoMP30b6EB0UC01CxySFv8YNpINY52vA/DO4kEh3T7AIGrgtbh97O3IVwngBRje+JQgrk03Drk7OK+u4Uhg29fWZDSZX2zm44PbNzjE51kYD+Yn73SHigp7l56ewDc3eVrgTdxztIRr6zhp0FleF33zuP1p9j5hrbyyi0kDKR65FUprwNjE7qRVPfjYLTHm9YY5Y/6lP4Rkg1e9/b2ZmCKg59XlCYQMs03kGMqFRAMAyITZqOOFvWD/jBQpvt1wvieHxbMWEOyiwANe1KUWFCqGSnJj3adQmFyjsT75BFPBr5AoxVWrx1oibPGd97p01exlBS/C3O0lEAVqtDUgmtgmIt2iAp8ZeH9ishN7lbvaWD3iuVcnYw+QwumsVVx1Rn5cGVq113hZ4run8MYCpsZd/SDNBY724EBYLe+AafOwKmrYNjQWV9Hd/MQf8KhWiaLIxLqDnmmjL8piz/EI4sXFCvRL4W+hBnxV26GXxPF9XyUKZwnQ0CjSyUJKwRUicNggOBtGbv9wN1My+G8kokeDtjCKvjOe3jAghhtDf2pczqEinWanu5Iyow5+XIR1S15nHzC7ovAfBiIL/dwXT5LL6kcHqxcfbe+9lkefEyimrqTSQ5IHyMjOYpRd8p126hfTPdv8Ectwt4vau1r/qFKaPsAtOs1HGJH9yEkgW97I6rcFhzVr+rdTQOeffFwboDkyhlEDn5ih6Wnben52IUZwYuvVmSTj52VFgwRvsOReCUGR82gFr1tBgCTKnrX2Vr5zv57QSdNCoWC+Kc5WkMlohxKmNEuRc/ryIZDo4gwhh2FqU71np8uow5Bvc1BraUU23AIIMC/7MlOIdLZuZglBrieeh0eTE39B7IufU21V+ZrSxgON/V3opsxY1x6Lab+K1O1Kquvm7LIwEAFMn3zIX/5drNtmzQwRmwN/8d0X35h9kh4cWaf/Ie4i+9QX72urlc+66WtsWBw2p/gQamr2G08B+pFGhDD4WeGvqJSo9Tg4JeHpdy7c13dV3OoeRYHXc+OBy1wuE4yVY5eJkszXjRNoWc/ErYig3zTBD/mSZ2ixfh/9HnFMTBHhue/9Qd6/IFoHoiStGE3v5T9LSiTNAhM/6g0xsnz2lVpDmVsY4MD+tgZKa4FqydzqlgdFwpj5P6ognrFR0cunBvq7W57jVwGGBpa/p7rBggBzYbdNVb7o+ZRuWBmf9uKSHcBKf4G4sbQKuBtqJ2q1c3YrbQX9VvtNNbmSe7vkka3fX9CeGJd2C2uzLqgFq2Ruh54f8aK0EDICVtHeaI+vgS4tfuvhtN4swwFim7hpfpwLghK5lGWKuegWaIdLjHxQ/NYidFRnSt1sBlhp5GLVvLAti/jh8rbzFg0c726PKqi2koXuuWParwmxzCETpIlaP7g3Te19PHsvRlLNBZ/USahbsCp5zAGeloiM5O5MHVoSrwCpj1rgyZJEbzzFDFiIZ4qriAGR7AJPM9L068hDj9KwprQy2wxiJclOdOhapXnxUNesOihaVuymcAIjygXYPjVAH2jvhCNvlaAw6MQWc5t08OH+60qvOR5w5FUTJ6p/+UxXlHGM+k1+JjzyBs2WwjPwMEWfDLxTUO7MuE9aJFGYLNS8gFI9ik3r8LGZ4TGY1PQqQW5weItssYjZM5e7tHbEyIhGxqOi36kz7Gp5JbMk1Rb2lAJvoCrhE2ZfhW17xSH+5EFITP70sqgRz7LgYYYAVHzjXhGce094trqFTnLAsxv1awgGoI08FemDiPQQrnqiJsZA9kjPfEWHjk2uwpOzS9m0KGeM6TKKLtL5wq+cofbAL9JH+3PKsphNVySXhIm8YD/EW1JaQ/m1Lgm7rQQs6L0Bm9jOMsO8Z6WCCW5cFMeAk89dEhfxSfJzIHU+ADin9qHt1sPClH9cR5bDZe6f1FODxmB38PwO21KxYRL3SRgvIGFtktDAwpXXHdi0u2PQpsXotuZjnItbHuGZeG+5/v+Xs1ANqgJJuX3oMRtA62STuUm/sJuAKafyF/1wahUDZY5enKH97IHd9vygQjbbL9qqprDj2sqgugBn/L3W6E3r9GFOpg/44FuFnCsVXSXgtm4J/jH3KXLIFrLjip44AU4vkTbhsm0GDHssxsfhkowkLwCD1Juyd4r+rRQq7grQHeRW6Aj28dp7Hzzd1l8eCOz4/lD6lHlHrxxA9nk9lLTcS+9cLxj2GyxAhL0s56SDjpHu8S54qtTXKCBO3lWPflH/OtzKjjp/Y6OuSRxB1pvPlX1kBZ8JJZI2PD1u8OqeiSBLzKheteuNuBYAplxo6XvEZr+EJBZSiG/QLGFDHt/B03xfKJoldWp9DIEnpMxtAhjWS9ex/ktd8Bjlh+lqduP/O+w3WAuPn/gd7mXFdLW2zU5k3mJsi+6YSE675pkEU/eosDxP4Cf2V/811WouY5x3cqqR8legtWicyMMpIFbiTQ4oMAHcNcKb3i8x2OG3GzTqW1/yUzlAMl3KxgPoxrwpIrAZ5matc3Us28YkTwczBYGqeGeVomCBQdAQvVddL/afXUs3aIphAYiso6tzkKWK8SrFNJ5NZ/oC8/AIK2b/zUyGHN2pzQknyaBjbBOuhfNhYLwUGlhamm6pOl7zbWw80R13sf9CpJVxjbrsp/4BvAqzwTTVFDpw+fyDyKKUCWMbWYtuoxEJ9k6OzzqLT0TePNCPF/a1Y5qzNU3KTKySTnx7RgVV1uXbhI+DvjT8zik2iosqr635tBrfOB0qsaHAFLOc4m+5GCmTvx3SgXzGlPxVLZAzcwCCf+awTCyN0IzAgiCLWXpBR55J7qO9hs3++Xmh8Vd2XWGlXYYhLBnHCPquEwdcYEFhAw1o92yFr2vmc+KnwMHH7VG9biUpCU4gboJk4+ReBv5EpvA0m1isoRyAr2n1+jAkH9mxVizR8Mxra+Y4Yi8NHgYetadom5Gfc2c44TqrRHufhwvwu4UTGvK7oXPrwjFqDlM1QFlqqISNDxWW30Wq4+Sj7GEXgGekCqfBMU+teYeC0bXbX9rtNszUs/aG/c3Vhe/sVc2lgdJsRx9xi+bU8pRfkCULZzHcsE92uVKK3OF+saMpcWwIloWG4d9mEPy0vqcommwu17MV7gCAYoKI2m6m1VYnLvqt2WMer4j56WKwHahhD8yOSkXzmaKEm8k/ZgrAiHpjQWV3HyMEeINFw0iQeufzaezapKzzStOr72zY15LPwuxJzPa5NLXAnDIIOxOzyJO5kq3XAoYKnbMnQScODG965oQpw/QskhKlWYz60sy/U+hkJ0ppyJl+mnIra+qUVqvE/ed5fq96xoJEtyHRIGO5Nv7OpsWXtEoPKKYfvEZrbIA1diQQUNIK+udvA7NxTZKKAX5zHWyOzEb9NTn2QtxNvpNN2TI3rsIJCU7KJaOT1gUW2HPwHcKDrgO1rDJ11oxMUUjwV3DBdes7TfNNly7ZpsNiX6CJJt6ijtQL0lXsst+fnvXprrcUbDH0zDJJsBEC1oyFlOx7BO79/3D29DyFkVNPjVBHKKGRo59HjbJWMvZo0qczmo6g/3LgyuV8lz2qr9t6t2pthpVreqI4p02ukI4p/o6IGFnPRM8LJUxFkG7qDmIglzjpD6W75nsQyBxGlyhlNWLmCieyni3DI7mrfyiDFJHzjEXqUift4khVxdrnd/vETk2q+bjRZUIXg2+nnRtG7Z3FKw0PpdGMZhcwHf89Mpodx9zYqM70k8AO4w+dR/QhDFLrI7a3riaZBj0A+G/PiWg6igPophdVmJyYr7pvTXYjiiTaTKucrUGUyLpE5xO4N+tTijaB62pNeUyl2ffmu2IYweCYF+BB4LmiCmm+GoLuwd3AFfOdc0XamAtsFfYDgz1mf89VYApQ2upeHHyKMMekb+j+PLvMeXjzRBAmu0K7v8OO6Z97qT05CRyjlJr6BlJg9B7aJQGV8Ruxh2CtPONTFBFxzUioqzKbPFZFt1gEMu1a1JZhtYBaH0slUPtDkDiS5S6DaHdKod5f39h8RmpxUEhbFts4B3FpaDRuM9dRXGj+eFNqoyBX7SUOZ9DeotkSkrfPruas2r2EYTA5MH187NAjYxOQzpcGeN129FKZUBThBUiQDSEZk8Rumn23xC1BwcxdJP97rK8wc+cQuj5oOiYB+0+SBvO+gAHunrqreExYJd2/qerd2f8RYKgq6fp8n7cpznvVSvUgpBwZFRj9eHpxsSPfW2iu72X3mhCycb89HVR7d8CrF8wyP9so6iOmLAu+M3p1t27swlP5/zA6/b4dq+3QHEKxNug/t8WXQfq9mv8/7dw0gFwZXqfWWyl4Sy2qm0Yn/AefAHPnXMUUC+Kzwy/BMywm/c2O2eLvu/rJfwX37S5/bwC2xtbCSCrcPquYnAeOo6Zq77QsC9qDyU3dNry3IoB4av/+tkLwssmLm3pHWPUvWF016ZKbVz6Sob+8Krxccx11lO/BEkVpOADc9T2qKs/qn6wFHXT2egbWQxEgw2pvT/YGMZi+TA43dmlkxmcx1jcf5/2GhE5QFl6u/arip6w5jjRNVlsmV73J5tUZKAt/8LEhJLuEjs/ig7OV1drzoo7AZ8FO/h1gThYlv+kuZ0XGJJGdbt7IOL4b1zWGkRcu6JV0Q7vD+srqnWFfdBKkkF4RAfDxI8+kCqhjDU5594Bto+vO7zK8bJaccyApbZn+g3KzVTwVaSQzvkU1E7ee4TOugaJt6zg400b9kz14tq9fcv8y5Nnr5Nfq0gOV0BO1/6+HjtXVLDK608QqbXylwsZTWf5FczirsT7Hwk6dY8TLbzU3pLyGfqc4+EAMoZ8JII3am9rN7gb3kxlsX8z/JaXO6ENDwD12rddyf9LA3u+IwGyJ9HkcLyUqa6eCP4kQxeJ8GgLHHQ4tuA3VZ4uaBqYFU5CRjA4ro5t2L1jjuKIpC6oxM37QPztroLWybvN9k/vJ/Npe/dlsmDK9/5wmtM9hWSWgV5ljSH2MsxUeQlyUTMo+Ig99+g9WeE06mwq8rTPOHN8rrIkuIDIn1XrWg5++q0nrRO/Nad1afbRoJ42Pb9Tkjb+8Yo8ofFr52vCUJMphJE+/JwHxjIVEfs7e4Hlc3HPAok0azVBDNhmXpCfLQh7Ms7qSG6K+9a8YAobWzsYvfpPIEkj83ycfy0AUZUd5bzB4WY7bfxhsU/NsIujnn0Lqs1eZqeXEb02di/tvbjA5k2SfVhnCiCcHvHN6MAqSHkroMWnID9MZZF+iK+ZLCL4ts1EAxttzowJIbj12GBFJGcdoHH04Ibi8dvl1uZPcu4pk+Xi/lhcb80089PVvDLJ1v0Zvklm5UOcrSog/aPyDafD5yiS5PiSyJ0ldM4htvlhU/4VQXkCVEZnY6+GWo3hal4uBlu7cNgQOK+CJs4bin/MvYKfYLHVWSwgR0qSSkok+u9uMlvUQxmaRpa4CNGGNSJGCD9NN3D+XGYXvsCU9qv0A+fXpGXUGz7lYCVzwAg+FtGlyLScmbuggw6056jGVV5OpqSwVN5D3J5sHwkQ1dQjBMHe1s/lr4g1GKJ7bOxPeshbFbpw+MyJJyjU8RDx0d4HBCY0YMBEyTB6S7rAf3tg1XcaU2XnJjU32BYhPBgRTTib4zTv+DgaSDzmuX6pDMjCojitYQBrS2h8BUg8oL0NjmLjxUxSlHxoprXFUz1m7t1Tiz72vTaZWi2jFNGwM8ZAW9D8P91rbJgRIFlpf2HjWy/RlRgRzxiNakNmmcfaOoOKFZOlFhOnY7R4rgOGbK5mWzYJMq4qFcs6IY1utLCLdEuEplZ1IQDFpl4/hiqLfFMR3ghwOi/gbJNCxw6t6QBGpJr/MHzEtBgXqKwy9EiEIT8Bgsoa+rKLIKJ1xyzwcRgYdeEgqQ6jCLURfzqB/M/v/AnQYAyfGIELPAOTFGkS1U5dPebEODUEavb+x9or6+E7JRzK/i0dxN7cU/DPF3qtPFsYe7IXhfzM9/mZZw15MdHwjMnsHl2fexdgs3CIvzdScdNz5csH2hVtGxeI6aDeQHYM485zkUN7QQO+ZMHzaWrO3EB73Mg94sEUMp+0Oel4C+wq3Y6qbo74shY+r0YyupgpGiwhjd/RR5uy3zc+DZ4AwBt/TRWuOBaTxqKe4w6RNZXDfmIP/QUQPzhCBA7DbfeFLi+1xMZGmPo38EgNW+cSreWRitu47fln+x8f4HDCiNKxJfy8M5fZOOffg0Cqs6jCNEBEp05PDLbri3G2XRZcDpYVXajxy3HPo4cCO57ZCjkwyRcllxN0jBuGnanEi2SHdca6vVL4x4gep6I7dFTVMOybIFFp+kgiqp6MGuyLXgOG0/9q0Ldx43eqedWCOGB04oxLAKozUmECXDGKOzocoiW4Zn0mKAWHcCdfEHXYfj7PYUs8uu05nej/yWPNaXUNmn/0nEj7vh6WL5APxq14GN1Q4cF0WHDYIY7RTD08OXDxlDEG1ylVfFg1VPAZzxkEYUnX/hMMy/dTMBn3aF2k5vEpgww8ILnqJwBJEnSeQFdBsUx3J6iN/rQu6dX2SZ1fnVPPNBWcVQ0S/PXNaGXh0oCoe8x/lEUf9qT8m+a75G/qRHxn3uPG8gykd6rq4r8tjmTIFH+Pcx5mQ00yyeC3BwwcbOzg8V4JrpI2DHg+lPVVEuZE5zOz8637GA3gLFPuZnMgF+NbQf7Z4CbsmbqafyEKIcf9Yn077XF3WK0hxvwauijPhZprRw18IX8QW2XlK79bN4i1GVFqmSTZGsb+Z0NQW/ftuR+thOj0yo1cZhjVbtROvYUBaDDs27Hjge5kKd8cPxhmYIijrGtByGA2PHrNTfI2RhACJtAFAwRXcOWnjXgVcjnKQdrjNgZTtdcvscjTJdUkeUlG00hlyDSHOiizqzipCaqLiRIGlD9L/nf/a/E5KwC3hgun70X3Fu5Z2GeDWWGTNzqaDNo92r7FLZriFpC88EbXfY2oxHrLQoezzbG0HhWbB9YBVRj7kOfat2uzxKDWq/BQZRUy1rcGf7lwkPpdikxM279LwVDn+0lzVjB9OB+TeZw3iJvqf3sr1nGUBMzNMa0kOcLMEi3caScJNgCQxg8O1EQvJ2wKezO/gFtUrJjZ5AhtRoxKG/trUhPHXb70I/nvptJYV8A+4Xd9d77WFiQ2xB+l/JlyNpscEd5S5n0chC03EnFGVGSKaBRbraDowCHPrPcIvV4P8omgH9u751dIJJIajS61XLv/xoy76npeQq0VT+dutmAK/QzlCx5cqosDQ4g8u2y9i+hWORX03hDN8CoAZRijBhdXO7jtQjpF9Skz0nbDtvLPyAukgXmdYFIuTgGsaiPbKOLiJCSxwjf3eVwLLlf8GG54vInh0AhMOmZ5Js32yDt6wgbtkBpUqnj0h0ZapHf42aly0K+GwM9dg7kOtGINEZ9Yf8mKr33FHXvgLxS2xxrt6nS272DC5VMXWCWhbgU79p0leYL636v8TN0+fwWwGVm5p/88F5ewKzsExTQL+cKhKE/r2D0oyM59C5IRV2FKHGIjXrLPoDAFgv89ZtUmbpCMlyzTuWvsUvJDpyn8LmKLYgLcazpWOtMjOecddqwc1cZ71cZOnLInv41kLjdhKso0GWBFS4/0hA654RQSBEuQSSu0+5z4u+r/rDZbLgNCBATKZ/OdfUrtRU8YO5boQ4V3xZDjRFXS3Pfv/0OcQmJ5aUdBB1x+8t7LnByYTIjd0457cHgTVLM62CnmkerWlL87qcYD1LWDXt0i9E++q93nWf5X7ethO31YbzAZX+9LQXeH7r/ljpL0b+h/+Jw8udI0TumYp9aT+2DND+yT49FOKCUOZ4ec9nIwuGuFVYUwuoPI+kL1TzyxsmdECTkiwKM3eoNHdN8soIz58QaTohSCZh9i9AOdYFaN2N8vMI3OI5TtQBj+HVkIgU7Z9ua7X71Hv4L2Lsgt6TAJyh1216RCOXluj59owqaPWmmzynofg3O9uIoCLtoHLM3/LaklwAhB1C+tjjdabNeWrN6iCjG2psU/6p7p4qlxhxCwUDmLHnBrI4VZ5iuTf3VGnQWyLciIhDYJla4/fB7cFh9460m6k2DXYDbvktEg80EPhmdWCPtjEZTTOmLVrYCOuZ8t0imeKkI4e0l9vMfnwvmX4bm6HuKWmD/g8ha+y61QniBps/9XKGiP+sR9eSuo8zegScjhiPH8W8hDmM7aRoHg9IdM1JiLUlzFIdlFKQtrIsI+ViT8LEF/YLaqyH1xj+oHirNZElppTl4EbSSh5rSFq3Eg29PVM6edANI9LktibqAR1atrAofLSTpuq6fJDGrZMPJv2IgeOf3e1C8dYk4bGgE/hHoMGMpkyH+HOQjjd8B5osjSrUUnhncbMJxHbrEGYGJELq0wCcjd72w7FohI91qb+x1YUUs8LX2sjWZPVE/1aDKmCl2bM7oKKgASo8eOCQhPrD6o5/1ZMDWI6L/38kBdjIgWl52OKII69CsQI9EAs3HtNL4XmN2ZZZxDh0kFgDQWctpa2hHkD5QaZeHorAmogZKYmD/rAbl/AFzrrB82gpY+1eT37KcELUWYIk4aTpwh/FSeVNEQ4nhGj63SANjFGATaHMiPhywgUEatIrcftElQsylkYeHzO5HvvBELo39qntTVL5Sg8ilJVub1ArKkQp3cbnh/qtWibxVasa8HsWjDgIPp+efTrhHVXA9O+cGERLP8NbW6S+1ezhREx2JXwJOBrvz/znHKBnVVQIHpjXP9nadnehxnUu17lZjvkCOrDhIv8TkIs25mstBBDastcLlGQiIhWyIqqiJg7GC8rEIAmQeTjYN4lI82O9N7U1zDJg3sY9LrDKfDv3G04JWofbV0UJvq9MAxB25JOTZmgP0eA4hb1240jY/YM0BampztNAtgepK1p87QzopzgNgrcqcDB4MhQ0alMy1d/gnFa8OLF12SA6u4s5hHHvuwuPrrQx9Q0BjUjLqOUS4QydxGMOtfJ4VJPDRl9eva73LOYexKID05uE1bL1ZqYRId5iu3y24v1cHRNlKQNj5OtcDlIwUWZl8N+GoSF/cTk5h+gqs+pHF/DUk2FhHMs1wxTLu/yvZ2AZKBuHaS+9NmHS1ZCCO3JNGPHmHCsOulqIUdSu9TN5iW5kTJUjraYswiEMMQMK/40l3WbFILP8SUtg2icS3hhvxYFPrTWjQrQnqreDjJSmGH+Ppy40Nfi4pTMdW7b/5mOhMyFQzK0HaF99/SBI5k9kOoHeOqTU6axQjceKTWRjPEMXfFsIKURZIDsLRG00/7NUcx34/RduZOIxmeCyaKwFZbnlWHrbp+V+IW/E/DTwXBszXOGajVyyv/a9+J4ienu+wUBKybrr6DJsf3Q01TlzIvmH9A804/QD+SVus5U6nrzWF0SS5wMYSFVdLHW3y/Uhq9ZlxUoq/I9NW+Ebu1VvbLG0K1/0DQx5LXNtRM4r+3lPmFhwg4HMjDL/EYAyPugNOi79ZAdmKSriwxbiCkXe5YeuoGBtvt5BHF3/Uaz+aZaa5yvrm3WaapHbwjmf8AWnTKOEHSGDpGXF6vwCSstmqcNqMj4nEn7Z1nUOOztWmvJqDEaNUjx+qd4fqttmvnK2vYStJMmHe72kGn5QjiHwESybFUt+AXcrJtsEvsvYjldXyaMa3WW5DanufszQaP3KDTEil0odLtfjMQHEDcqYSzzP3UjZO5sF6aw6zdhSnJrD+loxfhoTikD2bd675gj1YEszdpDvRb5BndXgtT+GqsmJUgTEnA2X6BrrXC6vyoTKzuvQIkr0UTbwUY/ZzX5UhljbFmnVOlwBaKdqshb9JVYl0pAPe92iMzDSa+YBUsqyYAtuZRVAcE/3rJVW/UmfrV0J3l2CqZ1iGPL4vvExA1BQPJdGjgbto5m+ryxgLlhy/SEmd4+wNJ6Id6E6RPWdVlQsZvTFk+Jr53X729R8aezcsDu9To8vRFh6VbFMuJKB2ryiMn1MQYCTXPNeLovJxswWjia2RUpsJFrqY01HrcQaSWQyAj71HZ1i2IBDcXHdJE2+mMn4tn8ESYhDA73RDTDPQUtPpq4M2xAf0Uya7eyJNMS2EmzG4PIgkn+tJy5nVwDySzC4dTgZMMhN92H3vgPDgni2bq9iKkPqlRyNMtaFpKV9LBpfcbEAcX+prorMkPXMsMeLWFH6PIzEbnosTo6ydQ/9xmiCCz3pAZqa0ZwISrFJyJ43+6a/VQg/SBKy11h9RftYABXUMBJqeeYcX6+omeDyeu0zI7XSuMdNUxH2et3F55oitcEIBsPspqrAOMlqa/guCvTXXODWcav/Qi2MWWdwQfbt/vvR9BI+gaRGCn/j+9Q6o/OVhv+kkrpof7hQl+DxHZYryKPFt4kYGXyHAVdHFfcJPOyGQ5RgPrSpEatIRCSTFY1pR3rjk9XlXd9e5ZAYltXCZcSpN+gA2CMYyov7VCK2T2ozL6KNylrEszHoOLRcUziD9Ra84TSJmRFxqM3lPaSuEGftY/hwxamZNy5U2ncTTKlYLi8HUd+Am51ho0FhV6DUZL9aFNPdyZ6CbDL++1VIFdChdlWYmUjLIB/nZi4I2ol14OgRHIMIngBuj1ABjhyJ9IH/xDgYGdIT3Tj3Qq7hKj4elCfldgTSNUHWnnHBdgkmXFDEjxC8fYA0AlocNiV80LY+fkRXpS4wTyNhQLcVxVcuS/LmP3gujBVhEUq8n1vDXdsKFHj07BYEYpf1JTcc/CqoW8wjKcUGTy8NIpeYjluYZRAI9l2SC22v3wCheAzCMlDgyj5l+5dSOODaFGv9wrkA9wXDe2yfrNRbQQKkQhECbNOkFuDC1VywaZRKkLcs6rH0nAC3pN3sD4dN8VWHAadmoWxLN0MpF/koQDouMe5i5yOB480FYpgkYHV14RyX6uGex6fwQkUsbpksFLKBLbgbzBZ8obvMzrsGwAgvq5fr5MuRC5kd4LlcrlYVSqjv+QTInPfJ15OnV4rKQsAMw6ObtsyceyPopY/y35+bBgo7S5VgF71PUPvheErYvoOQ+1nFHdC2ndBI0ErJlA3N5xEKG0zNKUgMAzgDzfz9PqKatQP5RKp8QlcoMtM1ZCCt2W1TSvt1sWwQG0V2m1JpNcp4/9bpAQapqdZ+2W4B7VYK/7gz66pdwPoPHjiRHovWVYgzWHp7tsgrCywsH/NL49w81KdRiha34rSVUDW8NKzPC8byQXPWF1UZDWE4tPQ2hYexYjSAXwmlxpEoCgzxO40hj46eDXAtdyEhUEP1LVSmp/3E2hNVaEeuWvzi7WQgKehU0rz6+mWO0iLDRl8jBYyg5c63DlgqQ9R/QDysN/N8X3wd13azd0JR6OQrFXR85JUSPiNxfYli9zKJNdoLcRHCpjVlPsFLANKElG1u0zASmnKCQMdru5XrbJJ+H8fKXnJYkYQJhZO+m0S5CFqsrRuCPiRDNTK7CHhL6MxzqBR4P8tufzixRuqfAXLGgLMwhHeJrU6yg6sUsg1nE23yrs1G37UguU/OFtz4bYifqyHqeyATK97G8xqq56jDXKWL+bNO93SJYNe1NVde4udUE0//P1yso2QD3Ll70JFPi+vg5rEJ7CJSKOpeCW7dpxBVxSQRAY05aidbmEB8PW5Ep91Cj1AF7Ur3erUmW4F41+Q+p6N+a/rUnr0bHsYC9jOtFkXOxq/NXCf2MEDZ3Z17LnIcjV+H2Y5UgdMkCPiml05FW7uEwElxHHSNNqTiF0xdSnTMSlcilg/BEK4KccrUbPsKeEamH2phb3cLDgIEJNY+x8aNwBJNTrYaG3M1VfID7RQLslxsjWZ6BQEts6kOE6ggzbnkU2h7jaGYM63difVVLuRudQDUkE8av200z9aNmbnckO6p7mlQhYp4ZbaVovxSfmp7gpuEvQh40PmjOp1ELXietaOR85LYXas84ORiH9/N0zqHzDSOkNvTzR/6vaGy5ktMe/P/xjQuuNe26ntW57U9KNReS+2CCsY3+OCMcqXhc7GM6ne3pV9l8x+PJlrW8k2+GnioKvDsDHyluRjvtk79oMswls1qscKk5WHk3U0/DeF+5QcUiZDqjVf79gVjhcL9nqW5UX8mMZWUPgzUZjGjOfDcljNHpYVYg6T3N00pgVxWokBbOwDGdeEUla7wJOtIj2rwQXbMTHIf4KSGQ1Y8jUBCp4Fqqw3wLO3SfLSaRZ2gMSWP53EZYXgglpagyaDHz01gKE9O+bwUL9qoosPUme7hLRzkAghss8+Tp6pKq7QPVydyI1VWA/0waNkf0pBYRFqewALEkRYnOiwUml1Vnsa2AB1AhiqicR7FgtczKEKQXpSe+6R2o6O6p9wrn4xZynbBeK0zqFs7oeEod8Oc7RpcUsu1ljCYZfaqFwRJx19teXJeJGQ2DFZ8E68BJCpp7/89ioSFC7noHEPmBWPDiDbu1KMshdnK8+S3q0RLGZSDlqHbl3WPo/vPEfR1OG6XSuwMtzuhwJtrereIbVS2SbsCe8PHV75w8hTPGZJm4rtRgGE0i0LQnXqK9Cr4XKGaZ7d/VhKisA3NKriPVOrQplC0onLzlmrGJOQpgg9TekeCaEMIiJRN5PubkVxpJ2M49ibLyVS4ble99IFR8M0czEfoVWWRFcRIdzw7IWI422lwCNJy5/CIbOBGjpJNUPc+PPlejxoAc4L3JNitRE7FAJ9LHky02qpOqWfzoYsal31IgeYN1doqsZ7ANRxBy5XTQ4IqXGU047nEu9LY8n5A5Q+euo/pEHxyLMrq7EJX1E+BHM6fwmKlUNMTS3gO+dOhK48i410ZFxIHWKlL2lS6/kbhgt3wy6k0XAIBGgmY9VX5W5fBZN3J8V/8xneJiTZGiJhTAqfAQECalsigMbj2++moYMf8NAWvD2JV8m4G69MQsB0obZKvgiblfZRUXI/gjRXnHLrNJM8PsSSgig0ZJ/64BHVCotqktaj/q0hOJOZ8HKx7Lnzsp6QaNZwOiYuuoEdvyjLOFurF5zgHycEgQrKNCRuLqSoxKGnREaGQ7mOCTdDMCN8uGf4xhEu9/IcNdBg9S91RrKV/N78OQfwdBgXj7AFeBUReRpqxIXXKxOM82E7kkTa1U8v6h47RTCuWlrz5WzGW9QjGdQvATN3/xi+y6N9RiAWTSPaAvSGSMGtpoa8elkO4Z+RGOAIoWusRp9R5fMy85tqlHZO295g+kFe4cycPfnFQdtGpd4r5Jr3HsUuJ9FNzvBH4y1dvCgL9sKPCQX6x+QgDeORw6X2FzviZGUsotpXikMvOrBXZJa+gN0W1llLk3ePvpaaNjpObPhTRehjnjLzuTwoMi6RAf9EWpmQY99Iio3D+dQbRXofwnkUGbAMspkfPG41Pw4Hi3kgxJYzL4DJJFSLmY0/5GYc3jwdgFCwiWp4qMspSbTLAmcrh51EUqrmGB5uKYhlT9JYLbewEwKpKI0G0EOrzq6bkpqo3d4W8kxXLO9D+TrjPkHYFySDSfLHa1s+SnSCoeF+jYTIIWZmkYnI3L47QYdpprWjL5LUxlf+J3Ut7S4QN9oSPYWLmFI5Oq2rgv7m+D5Bffu3qyDpP9U4kknQY5MjFV2RHMQqDJLrvM0c0nStN7E/Xhelamo2GVA4KL0TpFIAi0IWFaYvat2XHd52vcFQfnykDzG4ski/Eh1UmCAlc7taGzwa1h0uSPXZ0IkvuSz81sPR0eDBEJnnKA6+6d5+Yjxt9qiKO5vEqb1nKl24TcjQpENhLSAQ20Skbgjrz+zqr29LM9V249UD5NkaA9X9vOLhlNogdbe2yJZ9FItm5UIZ0J7sroI08mNDIgb4UmFx/yf4MLkBpXoMuN7729dMILX7kLt0O+UtP1hoNJcxe/DRgUUfnTD123YDxruNw+Bu/2vdcKS5kk3alDlTZ7QnZo+/6cZ/eGOpcq7orXHudjwpACbaECvsm9iWFQ+ow0YrThgfTs9H9R7A8dl0ujTuiPbNiTbLlsfzUcqzy07rGf2zGPTml+6tiLiFYD7pHPoxo68nrWQ2WfxqYHo3qz5z6irneK1A6yXL4KexXHDBBJ+FbseSZ3axvhWrkxkDv1RWcV2wI5WczKqHmya84izSuj9hhIgQmwMUORB1LB+EQy6FoRZIHKQ6wSTqxPk3VthI38a+qih8xkYTaQ8dn1lVd7Pbn7GVH8vRNhFQNad2NtCTg7GvHtKUhMk4pppNn42iWEEH2MPJyrjkcN7e0V7HE+CBPAfOKym1oEK6jYT3iBYN9gUGqOA+N9ml6QY9zcFxoa0e+7tac9naVb+w//VuNt07tQBf4yOxbUaLdSnBu5IZV3/1e76JkhvN4+8na0VrG3Tl92lf4LOLW8DmnNFXxMmAe0oiZSzBD6lvTEuKH+9iSfvC7QejGim5f0YKVY+XJEl6jWnPShs0HtkUINHRm955TN3isl2P2OBsYacFEZzNfpin0/zlPrXdmCYMhaZTzGF+HKIrXW/HJRxwS7SK0RPseLh8gcFYM42nJVLEiQXKhxWZLaz3yXTLFhzdRzhMVPwzqg/Mn6Lo+AOgGIVH1wwX2o6k9lwegFF9scsimHtf9r3s7EZ4jw0ppkMUJHCzRZPrjVZ7Tnee1ASYmdPCKxqoGAq15o2/SolvPjrdJ1Z8oLvcKNBCbAt0p1Yc86Lpu2L/wCxlZ579eQaf0cK/Y7y901eJA7DZxL15RbfqZYeXXmqsdZzPLGmaXy3lUnCPA3JOfdQCf6tvAxN/tXmOuT9Act4T+FZbw1QI2mFs2bn4+1v6Dkstn19dgy8zKKdfEPu1fTB5m5FvrraRO1FzjlTKwYqmMalGepMGv53l90ojO+h80jaxw9YdEGOnaBsucS1a+WEHCl4/DJIWyQEK/DwmXC7adDGCLa2+d2jov7lTyvYe7MOyENhU/u98Q1XitaLa7leuvCCJwUvRSZfDcvihyDSMQMRXUGF+NX/+MKI8MhrVTUx+D73WlSm4miC6Dxzqh6v06xPdY98feJhYyzCHT3bVaeKh61gI/94hJY1KHNy0TpyKVHih+6sfTM7QXe7ObkMDIz3zaus0P5fMeN+rwu9K4XlFJcr4xS62cNBZAUdz79aOjTY8D7IyuKC10rt34G9DBEICRq9sXUMwhSZAEKkhJV5QLOdRKKmUpDvcKn/ym+fNYMfAB/xq5mbl7UUkr3ZHn2AqrNKHcZIRzBqTCqV0uW1uQFPd16W020WJDVZFirnGi/dQ2ni9VVVeiCMId6MyrFKsp/xYfRPjY6HuxctJ14DKrep78sakUzmjf5k62+ARerKNJG4a1DasB485EyRuLdDu3DcXQmbF1OooRD6mRfAkvbg/7oS5EzPTAEFHxhhUdZwYcdpveJCBm9f+IRRUxY2RQyiHbul8WkcRHbmtirQEUqbgkBpYNo3O9bFF63oVuDWoe3fzCo9NuUT3BEuPO/4boz3tx8DNyMaAUc0q0gbwI/zZAd0kZogT5wKZ+H88Pq+AWKj9V/ycYpnhzSdFFGZO3UiLCF2CrnFFCgqmzAq+Rmy7m97Xj61nMto+MWaymr1u6uChKQWwH07koIa/45J5qOflaQnFGdryv+fx1HpqMqQtJr4pcr9iVXVkWr+3vC5ky8fipme9j2yIpXc281Zb9haEH4i5w0Lu6TXvUE/NS68/aPcxCfNUtuc8dpXKbwIzjlPJ1HoPMhcUFKrB+FRqZ4eCWy1IYNXylRFGKsaVy4uSNw1IFwZt3K8WsW3yaV/TaTv9hx8n/f1W37NL4X+JToMZNSK5brpmLpxbtZZuSBvoRqencPQJTRFcmRpWZTngGwXuYdEu0hgAFbFjCPimM9YY3h4cLbIbEEOspl5McsPeyItxcxXV+SgN3SMDVP3eBShqEZjkR+qan51hc/kj7Rh1FEK6TBSN24z6BmwCxddKFfqz9OEPXUE/6nZdp1APSxz8bHe8/L6BxnMQtbuRyukCQkzN07/kiq/Qx/obGWGcv8TADKh+TxrDT7DoiJe0KurrmLG2jS4Mu8ZQdud/l/IwMkJkLBmsUUMmzAAYpySScVShj541yH8UfuEngj6K5EvYmT/s2YjHucKh1CT/h3JWn5xvaVftZggfAXtIHbfKPuZNoW9WwhCARKVr29/zqpnXQUTVrhtBwI31GJABbM85E0QHgD3CcD2/R/sKKPDSd9rLol6I4Kx+Pwl6O/qeX0NlLRteP8zPwzIWE9n/8CXp/kMd2d4TX/JbPgv3/PaqECdTWsLXIr8hMc/StqX+zCaBS2UBXcjaYg5WM1HTEkwlI4Gacc1pH8g+DnOaN5XWrw8k/J9Q6g1g/bR3cWtqgh8dnFjDHwgFS2HIxstfM0BoBloO2F6z1Q8zEZ81TJ6ToVB+VR5fHiu/GPpWn5WQyBhLGLDD6oX+s/TSy3JnWSXO6IucNoOhYJnYqzae0LyizPE3IM7+O240yalGohhAHBOq3VzKk2BrssFwQfzcNv/GPHZ6Gp/tfN5lqfOshA8UlnFOBoXUImeD5dyJGEAcNwtvYCqa43EmBbRdNWiHwRbcUroeBtC/O1tG1PCjJsLHowi9iOh/wZ6I11nbkAk8d2T7UfFY2RbLZ+yvPz3MJ2k7ejWuGN909TdIrjMeKkyEFSpHV2kSOjCjIjqi9FKeZU5ebIKv8tKGOY2Kdxg23ZsvuchuFnigfG2ivRKrdF7VFZkYTk4KU7llxLEYD2wcZqneZiNXfhIOPJybICmjH8Kh70SNFt4IhYDS4Ry6NTboaldvoSyEnT9jqObMueueceH+P+3Q1q8bf+DoCl/VgUAlHp12irl+y4Dq643466LGTqxZO9j+Bj3QVLfqn7i1WTYfQM0UmIoAvR3mSg+W8UuYshmdWdjhq29HeP/7lM9x5y11qu3N9DBb+96q/dMR0y7U6/uBmb11fYiuHh2UKfeI1ZilODLeNFC4WB0zl3Yrp3iMlfcNlTXtNnLN0QupgdnOcuySAv8s+bWy6LyeFuzM+lel1235S5CFIsdtt11prloj3ozyUVEoS14JLWQHPc3zKxg9seeWj266/mh4JyfnzknDVEwx8PxyWzaUdhvjuxxxzlI+OcUFerhs19wnCskSradkrqyo8vjV3xuTSFisB5RV3WPDSeBSxhhL2wHs3KJtmMAFv0H2wo4QZOCG76KFgBf8ZFoI81UUMZnM7oK06upZbPPRNpfQiLZ18dxWTmLDXuPP3G7cPSS4ybr96REVb/u7DkqeNw5SOqqB8xotx4/bnkO1O3xt3i9kk890+nc45MdyGS7nrpZcyqiAo8A285PXS6P2Dv4amZY2tuICNufMScGBt0594vo++40KMmtB3+YvUWS2h3NodZxMta0H+D4Y4eKdUtMfMd/WQD0q/i2d/C4gF0igi/B5cKfvyKe7deJeY+Ct/UfyF+sMIjftjFUyZcinhVx2Egr7vLcTKh+vd88VfxU39/snrgb9OWO9whsGOIG56zoLKSAnjptXi4kyJ5B3UOB9tFyVXn5/ezkL3NkgspOKsv0pkg/d7jma8GhkYl8BPCnjrMpJ6MGQICmAkD30950UJgDYOqbPQTbaP16IPKDeohYw6oBxOnFxvRw3YsTJzq6aeERUMbngglMk8m+MHK2mJS2OzSskMPwUFOQTECuA92ISpnj9V/+xNSXn3qKWd/RDD/GeRDtEHmA1dAK8Ij4E4W5IaoR2cwrhmQqnE09cDGuxgXFXGmBB37kuYntVpmrT52JyvO9q3Ml5Ldv+iJYYhMh/tAi2tu8dGCY+LkibyyWdrRkf11Pj14IoPK/ALDb+q8hRmk7tZJVajIyBOnQv5fB/wOWRCNmsAV/8Zp2sWsPQJWXbylu/jPpzT81zxhsBg8wuSugZn1826JswEfRZmsj4L2K9NxldLNpg8K2q75vph2eV0FgGTZ9vtrl6wkqeeiG6Dlk+Ssug/xIsUaUizyO+O3o9ceIGx1lX2R0LHG438339QsYZSmTN6KvRYDV5Vh0Cyp3HsR+nSDXsMI6M3NxC/mGe4AaLwnNRGPkx8QnQ7iVyDux2DA9pHhsvhFmvHQkSm6r2jrhxwIKUbYmZHW62xrm+z/d/k/keWcnWkAWYqu9EdoLURMNWw/Nm6SR9FxD940HHdfRMEAhfPcd2dGZmBPklmjl300ZEc+qsY99am/Ke6OCaR7kI3Y82AGtGFyjrUphdsshoD63u3BPoBPVFc3ls5z6BrAde3wZ77SXhiS0SAcgDnfUU9GnNQPPJEMVVm8lkCU8qIysJHoRpXr09vvwbc1uOgdGymzhsNo3/SjRuWQJTZa/pBLyGLZkECcUWDqXRwqh2rZGcFaWCXstMTFNevsG82kyKuWbiQLnqCRyAwc5KrlCI8E3AeHtC3dG9aJs2ogs1w0IjXh9oNaqqv0TCCrGy9i0fGV/16pTminPdXH4GyqMQ9FWgrU2tvNhocD0MteE5k3ulgSlNPCGAVX9yD3g22DOBj5zoFkZONgcztprPnfx5uV+Cs8MLoPtBycwj0x1sQIueKalG4grwDV0/FEHuDrTNQ31kevZTvREnuRLBU5yE9dJxBo0mqjuH8HbbP7gX1j2ORSlUTbMpEh8DvhqNlTaDe6W8veK73y8I7Kvo7ubOPHBPbG2IriUs02pMNTah2FbCrU4kyzTGWmhcIr96tjW/AZF474QDTuzD0xBOXo2UILlHs+rr4cjAeOKJvtfGLrEgwke8kxrG6ALHF92lpns8snoTBleKvEEI6plTIIL2qwyjxg9vJqebow6NDMJ7kJSoRYWASxyB3Fjt3qbpQD9w+xD7go+H91KKSq2ew/ErAyiganr3ciGSX8ygeC89UJgnwFRaYIFsJKZcjuuLOmW6zVccNDry+1IuGpzRrQnSyYrMRPM52j5t/FLjUZbmzBQwcG9gCGYewKyc4xpxiRn9Oh8iW/ZGYy5Jos8VEHeLMiakZp6lmJH5mQnACZZAF3MkB8eNp9syC376V+PNivxig9sy0o9vOmIB2F3Alepc3WLlgHuJvedBT3TGntmUR+2Y/k+kVAr6zdfQ13qbc586gTeSY4zV3AUzFLzXdcDhfu35aTWuaYuQ5Wx0ohzYMVGI1NakesNLy+yGibiUYV4G96FKILxNlWl5BHtKg2MSFry8/YAYtMXlKnl0MVGNLdJFMWMZbg/3crcJN2Fd7x5fGmEbaPyceMghwq+5zrIsW4dV+jRDxn/NHDsNZaB367CEVItlVxr9W/BDMPGCm4Et2Yd7o/SP11s5kmFLVHysJXg7NpbbMOoOTV0j9kWh9H6NXmDeKevt50lMvJC0O7HVeOwileuB8LoPHROoThWGFofHBQm9sxtdLeveCC7CUOh8es4wbTpoLewmMA39g/TCIsJ0VZakzNokx0ixuGe1S1WCTnHMFFwHEfJhB5rFnyxie1qyng8EKxGdP3xGWFF0GJzR0y+Uu0jDSZfyp9yW3V2f4Bd2TuI9TjpQJRlTab5BM2i5UJpw2dnURzg6JB7KDSFmvhRJI3E+uInrCTo8sEZ+VFWtmDRe1T30A/Hb3wphTAWfjzD/dMyKOxrLKT4DQvhWjWyhj/DcAZif89DSH3JgTXLhQa37T+VgdOlNTE4qTk5nC2wuMmKGHBlRMFeyU+/OURbGELSzXxRzrEqQt+2jR/YpRk+d+FCWwtkn6rrn14mDlJTY+Nn6ZjJFbSPxCCY12IPCdu9+nfPybofzZO6mTM8Y/hxp/2ErtdWiEXq+dBqNVTjgZrkKHL4FaFvk4c0U6kpHG2g2tDhaXPGMdv2A1DQ+9Go50JAopZyG/7GzbqEY91L8hdk+2Ve+UWzCW7hbJaYPph6pIZQ90s//xlWqs6dmOZDx2nf5TVj1yzr9znA0N7zaeIfgg8ixmokP7xFQyV5EwnXJUd2tarQw95/Nq+Fbh30UFLN9dF9VUemV+HahuojGd2vUb83AWWnD1Is5BKjPHbXMdvI3VbhGrVeTkhARinGDomlqFTLW1QUmL7+mis/Y1tL1f9ueqlmXN6k7em7fYlFWpMo4tfEP7tBtvkFpPQBCL0/HHTGAOSOgMYCK0riWi8em4L+wT8nsDvAP1+QOMVTmEiGm2thT+yPBbdUEluMFs2mE/PTykUcwO7KCPKJ2HAgK3CH+FDUIOjOboQarke77vhWKkfUllfjQDfUXZS6nzQpoleX19Ek0o9CAAwI43/qpdVarukzd9HwrwktMCm7+w6x9haW5EW3eZXI/1Wt3Fx9ZNvOMfECzb5K3RtxVe2fXvNlDlYdST5vAWibMspPGbPsP5FHg1vhXoslWkxrxQTf4vlRo2Fzimjgzb1B3JYMXZhHdhHIfhHM/nL8kSqmyGUTZJM0kwAk1wl9dXVxLVLZhawMY1A+mI35mpoHC4U8FQKaB8pwYky4Q7pCvPmD42lCw23L02ggt1uRmuIi0yvj1xwSWzxwK90rVvPec3N4Id4WMYZZqCmh96zx4I/d0/ExsWSO9YRiyaEwQopdWIGTgoPine9ZhvXAez4K5h3L46CBl/RxyytE2FLvJLO6RaBNjXmO38DonFYSe0DPZpclhSOsiao/YCi9x2ldMuARtknllfOZEpgwUswVmk/iNL5kWBt1I3JUyJtRLLyjzkhisAPdFDj4WRmZwfd3os5rR6F9PXs0lcTBNHrGSOfvpQyXpD3B7ALvUtCGjrtIVU6r8AqROFwv1K1nr6VD5UY/iONQjyEIO0GQcn4etSSQX/WUQTD22L2DwTaG4Jd+AO8GeYyGTZRShu9WLMunzEmELwUspYdwP9J8deIgtnu1RCyF/kPXoh6N95xSmyeijps9iLriYQHLhnPqMViLx4HbrArNrb5laDY7o9CIH9UW+cMdJ8/wvn6VwbMxM3vv3esMSOaonQCXlReV6qIquetOjFX/wvGzNlXoX/E6BiSVfHQqbzg3xiHMNDxohfr9Zs7OVPm+5T6pl762moucUWKQp6AENCm0+s3syTYk+vAqEXNTArs7SBGMZzZudD/bH2ZhTolXuj3m98J7m+0dQ9GnzmOjyXCdK/Ojr/+nrXGGFT++jzWSuqP1opB7HX/TBNsVoNHLiDxGmFjhFdzh4cW82fS4C4vgslKVEg4gg+Pt7Rvqo/XctGjIB0RisBwJsnd7wJjLaJYBiGt7lgWPFm9UE5cQizz9Pyur3FD7u3ueC+Pesw6PU1JVkIxdz8Z33ObRkFuYvEQ67937oeOzlU7dFqbN/v4MQyS/HCLsXEqUTw3vw0RdqufKZQmzO0JezXKDdjd5IaK51uJilP0nwlnDTtW62rk8ei3GLRVzNjWdoLD/jwEgQ7yITs290EEiM7ikHjTxgRNPZ3y8tK9IeXW6l7C6iaepak55KLCPhEaAYSOpJ5dL5B3QdgOFx2QQpe07SnE1hl1Uy23zBjJRC5dQrymRr84IQz42PeUWCzzV1gUjbaaBbhlHbtLoEZpm9BEyR4KTp9MkE1yoMGckeDilO8XXzEIsxxBiqLhuIs0tiaqNny7pMBNj0emgq2HqAG58FNHuTUKn6+2/+b/fN6DHDd0OWIEO38DxkcXNYuizRl/PrjyKaLjFAW2I6G4aYxN5YeUX1X1sjS4yL2yiizd1Cfnq+v9SeKUCyTaHx+PQZ0BUL1oR9itM6IW9K7ezkZB2T0boNVqCkY21oODjaiNCH45JxOoSnjjmBg9GQZa5I53ebqXnsNT5/I0zj1BcSEvSjrvtpAGbbP4MegiQ2BAE5sAyWHdAZ+D9LISQAUYUWp9admog7PX372o2JC6uQTWbe1dm6bL+KeFcbMLMzwZ5L1UvlPwRk1/e/9vYTiAB6+XZsVXmcv7dNp0xf0BAfRREkZ5/U57ZnsgO482YGcpxhWKA8ppad+wL7Y7tCbjGAQB8Ib57sIOh6WrqANt3x0gY0cypQ1uQ1l0B0rGnW30Ink3H8v90mgzZe/9d9ub16tcRRo414KePaLK+FUkv+9GKvq1UPFvYnLe3el3AOR3Q743cAS3QMI5IpRQMMIime76EfCoywEoD76I64SYGDW83dDOoUp4h2x1lMZarfm9PvzYq7Ko7OGf57+CwFDDATeRrgyvzb4UlwUfBTWbP6ACuobJY0bN7B6d6EouF/PP6AOTmaaj7z1rvKtFA/P5hdZtirE8BP7FsgabCtOBadQOHbgP96nkhEZysa6Bs+j2SHKOOqHdpjtjjZ9vI9t+ntb9eVJ8l3oVCMlIlKvWRS8qVOUzez/qQBroub+hdFxLE1tqvDXx1DM1arux6l9tv6pgsQY4tCeNpT6h1StJZaUEA54aFbq/P4KybQ5hCCmAVhqLWMh7eclihPxJyCtnwBs6wDvasTKdJqP/2CLtUZD8KTKNWejXqbfXu8h1V5s9PXxEoh7UzZjpi0vtuPJkpyQlHTwWg17zUTP4aaAOvSDn9EmotmCMBu2BqLlYxX1N3u9I2HKOBKe7boPMYng7frVm0Ws4gaH3g9/mjSka9Y7a1fp25QRaFJVL7ieIh3KV3eOBC+H6Bd0hshMjEsbyBMIigjnn76ubkA4YBKgdhcDdwUsScIu97B+FRKElpr7tb8UCfOYX9H2d2rOR7CdiMHf7UMeijMrVVKY9foEkcgmfoJHDlygXY1E3hJL2Qy+fCJOu9tRwuADdhwE0gUYA7AimJqqoN5la1vAaQDlyzMmjvnVHlO6L3iN6x469CaqnZtMU/loH+Tm27xiJkBuIWBPwqUbX/51g2wK1r7mgYtXnGKz42n7J/kyTsrIh0e0k1xVf0ah9bLIUu7Qx5JpPQIc9b3Rqo9E9WQsGUwnIMf5h568gJ1s3soyom5w0f1a6UhP8CehNy+rI40SxtpoWB6N8WJlKymlis3kvGtnFrqqRBiVqHISzv8krn+V2P3jQK8CqVnW+nbQcH9BvVfgEMwTxxA8ULayXSoefI0ZPyJ15SDlJSC3g2aMBD0jynTh/gkAc3bRn2K0ED2Rh7md5HNsOLY/ugPzq2qzPbh2dRDphKmrMjDgmhoKoCzoaBZgHi8KYeH1NSZ5npPxcRMD6f4ykw5qNBbcWXDG3aTSledncdVOOOuL1C5sSAdXyHoJRi0+oHh8N9ub6lLnXI8Odx2eEKC1nk7uSehX3jEW7cqVlnlvY3gMyOcJE4JFbQF07ivWO2dhMquOaWFQdnTypd2Nq7vHk8UrbUlILVC+he/HPf7G/Ss6wQtiESWrT2AfFgKjM0XBaKY/JjETB6gDE6TkjkD5EH4rpd6Z+Eob7GY2Nz6j08yD/Q8Zw8ZXh5iQQGmSzAQc1ezXWXv/qSuyq7T3Iu3Xx9Jf5QzvHDGdJKT9HB18P2q0xIs6EvXbMroVlrF7Thro9FxeIbetbJXixCN1Tq0rtiXLF+xp13gpL817J7sDchKi7gMtQU/2WdHT0X9ndzLs/l54YseKHwmZaTYTrZIpKXuime+C2NZO7LAiuZTQY517mf8nmoPrTXoit9YChUi2UE3U7k/ebLC4nN/x7J3642KzlVn2qOQfLpKoZmE4AK73E+RQXgIuIHlHZnS8h8S6EQTl9+V25oUkrZbHsLHySXMwIrzpMj43yRJzQ39QxgH60K8dhp0mFOZ7wx02dDQQdR4rifQCceG5dS/Q/2A8f01ykGQKfYjkxFh79SDwCe0P0yUwbNBu14eR/28xgL8cEqk2SfGCOyPT4gz+ZaSZF9ijtUczqpZNqnRDmTPY4RxIBhrVD4ck4CoDPqVjgEIcQ1hvmLN6VZvpj3P7cEHqUIeCV7ggK2kSTAlwM8/AsckDpDC0/r4H/DyjHLNsMzz+uF6x3xggFJoOD8N10lz59ImjTjMlQW/gQbcTom3GSoQn+62cZTHwekx+lxilua9pJYMVq6Ugw9jEgqKQn/MITd/S+WVzZvv+H6oZDBNgiGV6nxANPqMC8PxW1UhlXwF6EeYOkvReXvRYNYsx3l35QEBGwmXGf+GkUVYo1M5/VEYMyz0QQbasabSwP17BYtSx5jbNuw6FWhTIWsh35Qf+ERWTwraFqTFsyXpHR8W41lrk1YDHBn+G3//RZ4m20auwZFjnau6/jSga8xB1eMcPu6+iY5taO/TqehliXcWyC/MxEeeH4Uibzm8AKx99mw9rXN/JhyXBY76SgkvxksaOx+ErvuTC4TkuMmjjONS4zc55CVJNMxPeO8Bhc+vScaFFNEFMpzSwRB7M1ofk2ejLBsvSAI/oacgtOjDLKpSXxNa4A6cZGYYtrKG8aiLtDzr3+benIKtCla2jAtwwrDAvQY4tDtgb1qGcX96GSkTDfha0nWTpwfItx0mdmUrBgoHuaubm7SCGV6Umw5vnArMT1cl/QytpoInQ+Sfa7dVLtkbaPYUBxLfrfVhJybJRWlG5BEGHckxDZalArCEu6jdKFvPMJx6jTIi+njC/ixcb1t+2yBcwcwMVXKLo0rPiYQFCXRKOljnSJqLtS58WBFTl06mwfCypMnpwQ5b7L1Vi7hFiVZb8wA0ij8puuWTurl9NjQXAi5rbyUXN4lsywxw7gjA6deWyMwXkTnvMoqseVgK8ZgdbFvfyP+O5/Sb/6zk6l0DwThral6hoJXJa6scAYdvYLoPMurcsl0d6RUh1soJ542hdbiOxUR2K2nqc9IOULlsRn9GuHO7WIMhgpTdugwEecjxOPt16SC0pLsCb71XToo25daS/nl9FAlB6oMHocMVwRCrRmqOm+3OPZnVCyLdk3u86KneKfnJ/sSix+yoz7pqsUImY64n/YuFhujvf0wSrLh0afcwCFgUvBaSWtfHptFXi97uTIu8YycSBHC1zPmSiZvvfBrQI4YYsoW6aTrCgSoFcWZTIc18nSI7hvpWvhnR+YoRMMUftddqO0J3ySfOf9uVjRQo7a8E2+3dtayI/+gX/w3fVjELKV3rizkm3mVQLJczTv9Kd1LZt3KNJ5sYvFblMgGMm/qQK6EF1eeAx7DzKqoapVTUKsGvXks+HFfUS5zm9EyWaP/ufJf/AkdTPwa966hq4szVRqJmGRxQBiJBBQcuHKEOGsJyf6Q99p/I7JcVYaXspNAPDa2RN/Vvo5AhBi2MGfiCHvqAUWvhgdJg+VfqdMrpMnpCtRdU2Kzp+VVwmldohskPHHjT9OMcWsREF3jeEHW88VKedNB/7purdTCgxOzzqAbjfX6P0IPtJp5Tw4pj3Awuz6dnDeI6N0LAdwdDLIveE9Zv3a8+YCC1GU/QFCZPQpZoGQ5kaDCVgFQNyf4toxC3haYPZlMu9b9HvzVJj7ucsIVG/s8gCVHXlLfm56q1DxRxA78vc46BgZjxpOsQy5mN1pvUSBt1bmlN4poS4KRWaaVguq7pCxJK0MOLsDS79M/Fit3cJj5hQoDk291jxsCstWp3tLLFe8nq4oisYFMgtWU5BaCi1ZTi+ReZTqpNj7NbZweqdCM5Lqbwt2BRVXA54CKxLdm1ykeZ0fZyrm/tpRCBhOBX+KhfWe5P8CbXSMKcgt8wqc1S9N4UWQU4dMekyb+iLQkBG/+5iuLAAlycjYfeN7n6gkBJTYqQqvMJceW2FBsjNUu8tk2AFTLXiY4eL5pF8sgwA/j57jQLYa4kD14B1VanXVpEgE+1CFu0i3iAsH88gE+H+QKWiX53S6Llsbhf3tnVc3T9kn90IyupKX4qSa9Zd5BEY4oxsDPz6sOv1excrIIj6RIc70FYjA1uAi+s152zmShlq9O2x+U2saHjD0kpmPhYT6aX2+9CEHMbOGPg3koOh64T2egkpZmwoQU88j2QOZujTnVpYUplu51FLdC7BQ22nLAi1pJxCU9byfH0KX41N/yqUX+rXogz5xjWGtAwQioafZOb54X9Zb4dGYzliAyYGGzDqiO3kXHxuzxp5hBgnT3tKGaIITavMplyUNmlOKPS2vNm54C7dQ0xx7GgqnxiTJKjVjfANxSqdQC7AGByFMDRfH7LEPq9YDDi2NrCqcuE1xYM6+9Qbso5yC7fwUEQ+yv5fijP+k69YJ+3kt/cIu8rnMSXUJGdzrBv0F3PONZUrkECB5CETQxGEHQc/Dzh9iT/NE1Gid727ilY2D5bTzngU4Fq8rprofOoS0xNAe/MJptYYJZrRATvMULHE7MN3aic/mVmd6Lq4EPHYAUfsSWyI7luzmYyF53nrP66/x138+kT8AEjBylA5E5AC1C4dfT9jdW4lwtS4W5q687hmjigz+pCQjGvZeSmFwHAdBKkR6cAoHkk1KgQW7sN5lFii2/VSMABq50YOjyxsalDUzAbkvveaONe95kPVtvx49r2Oof6FF/1/pAAc6DvMutRaySVkzpLWJdYAewyHzr8ncUXywwAjLkK6waJJsJej8t9Bl+6ZZfidRE9B5hM/ZwrqU1PgNYFRjrDCUf26HGCy43P4leSMVXmU0uMQmKdBT039V6gbaukmukCU77f+SZfqULSPDg6lPiYWgoKBheXrNSvsWfzLfNJbXx82rBzKseO5Mwe9TuaH0AQGMYosqa8as+JDQGD+XDN/Mf6AJxbJ94NuG5q7r1VAjUoHN9gayEbB4abLMAwkJQyNoX5PFmOTq9QKsXX9eMbvk7rHu9Clc5aZ07lGMDbVRqQAk1h6hZBW0cpCgEMG/4t3p7bEQEbjzUBY4wGjKi8xFP2IE3Y6TSxQz3oUn/MgKaLcHiqklOIirbHomH/r2E3JQDFKJQI/8jxs4fdrMiY8hUBzS1DLGjpgpvV3f7RS5lZWO2wHlIFLxjfT/DxLKpqDUSzi6EZh8CgKxOqp6Ty7UOBDwLmnA+pkehGxlWCKYRxDufCS3cygBwD1dcOmXfNOUVKR3vbqiAg0I4CSjpcDqfmex2vAy/yhQRkpEWMd7lUmW0d9tK6THz61U8w+DHPhasxGs9Yipqf1YeSopdTkQIAAAAAAAAAAA;" vertex="1" parent="1">
          <mxGeometry x="953.86" y="-542.15" width="152.28" height="182.15" as="geometry" />
        </mxCell>
        <mxCell id="4uxi48dZsm-Q4CyYIqbk-42" value="Ao clicar em qualquer um dos botões irá aparecer um pop up" style="text;html=1;align=center;verticalAlign=middle;whiteSpace=wrap;rounded=0;" vertex="1" parent="1">
          <mxGeometry x="1250" y="-510" width="60" height="30" as="geometry" />
        </mxCell>
        <mxCell id="4uxi48dZsm-Q4CyYIqbk-43" value="&lt;div style=&quot;text-align: justify;&quot;&gt;&lt;span style=&quot;background-color: initial;&quot;&gt;&lt;font color=&quot;#00ffff&quot;&gt;Voce tem certeza?&lt;/font&gt;&lt;/span&gt;&lt;/div&gt;" style="rounded=1;whiteSpace=wrap;html=1;fillColor=#000000;" vertex="1" parent="1">
          <mxGeometry x="1220" y="-430" width="190" height="100" as="geometry" />
        </mxCell>
        <mxCell id="4uxi48dZsm-Q4CyYIqbk-44" value="&lt;font color=&quot;#00ffff&quot;&gt;Não&lt;/font&gt;" style="text;html=1;align=center;verticalAlign=middle;whiteSpace=wrap;rounded=0;" vertex="1" parent="1">
          <mxGeometry x="1230" y="-360" width="60" height="30" as="geometry" />
        </mxCell>
        <mxCell id="4uxi48dZsm-Q4CyYIqbk-45" value="&lt;font color=&quot;#00ffff&quot;&gt;SIm&lt;/font&gt;" style="text;html=1;align=center;verticalAlign=middle;whiteSpace=wrap;rounded=0;" vertex="1" parent="1">
          <mxGeometry x="1340" y="-360" width="60" height="30" as="geometry" />
        </mxCell>
        <mxCell id="4uxi48dZsm-Q4CyYIqbk-49" value="" style="rounded=1;whiteSpace=wrap;html=1;fillColor=#000000;strokeColor=#00FFFF;movable=1;resizable=1;rotatable=1;deletable=1;editable=1;locked=0;connectable=1;" vertex="1" parent="1">
          <mxGeometry x="1520" y="-640" width="280" height="490" as="geometry" />
        </mxCell>
        <mxCell id="4uxi48dZsm-Q4CyYIqbk-52" value="&lt;font style=&quot;font-size: 20px;&quot; color=&quot;#00ffff&quot;&gt;Seu pedido está sendo desmanchado para ser refeito&lt;/font&gt;&lt;div&gt;&lt;font style=&quot;font-size: 20px;&quot; color=&quot;#00ffff&quot;&gt;por favor aguarde o tempo necessário.&lt;/font&gt;&lt;/div&gt;" style="rounded=1;whiteSpace=wrap;html=1;fillColor=#000066;" vertex="1" parent="1">
          <mxGeometry x="1552.5" y="-500" width="215" height="140" as="geometry" />
        </mxCell>
        <mxCell id="4uxi48dZsm-Q4CyYIqbk-53" value="" style="html=1;shadow=0;dashed=0;align=center;verticalAlign=middle;shape=mxgraph.arrows2.jumpInArrow;dy=15;dx=38;arrowHead=55;rotation=-180;" vertex="1" parent="1">
          <mxGeometry x="1530" y="-220" width="80" height="60" as="geometry" />
        </mxCell>
        <mxCell id="4uxi48dZsm-Q4CyYIqbk-54" value="&lt;font color=&quot;#00ffff&quot;&gt;Voltar ao inicio do app&lt;/font&gt;" style="text;html=1;align=center;verticalAlign=middle;whiteSpace=wrap;rounded=0;" vertex="1" parent="1">
          <mxGeometry x="1550" y="-240" width="60" height="30" as="geometry" />
        </mxCell>
        <mxCell id="4uxi48dZsm-Q4CyYIqbk-56" value="&lt;span style=&quot;color: rgb(0, 255, 255);&quot;&gt;Está correto&lt;/span&gt;" style="rounded=1;whiteSpace=wrap;html=1;fillColor=#000066;" vertex="1" parent="1">
          <mxGeometry x="480" y="-290" width="100" height="40" as="geometry" />
        </mxCell>
        <mxCell id="4uxi48dZsm-Q4CyYIqbk-57" value="&lt;font style=&quot;font-size: 18px;&quot; color=&quot;#00ffff&quot;&gt;Calça jeans com 2 bolsar na frente e 1 atrás&lt;/font&gt;" style="text;html=1;align=center;verticalAlign=middle;whiteSpace=wrap;rounded=0;" vertex="1" parent="1">
          <mxGeometry x="965" y="-320" width="130" height="30" as="geometry" />
        </mxCell>
        <mxCell id="4uxi48dZsm-Q4CyYIqbk-58" value="&lt;font color=&quot;#00ffff&quot; style=&quot;font-size: 18px;&quot;&gt;Descrição do produto&lt;/font&gt;" style="text;html=1;align=center;verticalAlign=middle;whiteSpace=wrap;rounded=0;fontSize=18;" vertex="1" parent="1">
          <mxGeometry x="414" y="-370" width="60" height="30" as="geometry" />
        </mxCell>
      </root>
    </mxGraphModel>
  </diagram>
</mxfile>
